<?xml version="1.0" standalone="no"?>
<!DOCTYPE svg PUBLIC "-//W3C//DTD SVG 20010904//EN"
 "http://www.w3.org/TR/2001/REC-SVG-20010904/DTD/svg10.dtd">
<svg version="1.0" xmlns="http://www.w3.org/2000/svg"
 width="800.000000pt" height="800.000000pt" viewBox="0 0 800.000000 800.000000"
 preserveAspectRatio="xMidYMid meet">

<g transform="translate(0.000000,800.000000) scale(0.100000,-0.100000)"
fill="#000000" stroke="none">
<path d="M0 7294 l0 -706 57 7 c78 11 108 15 173 21 30 3 60 10 67 16 7 5 16
7 21 4 4 -2 26 -1 48 4 21 6 75 12 119 16 44 3 121 11 170 19 50 7 122 12 160
11 39 -2 72 0 75 4 9 12 90 21 90 10 0 -5 -11 -10 -24 -10 -14 0 -27 -4 -31
-10 -3 -5 -12 -7 -20 -3 -8 3 -15 1 -15 -5 0 -6 -13 -8 -29 -6 -30 5 -50 -9
-30 -22 6 -3 36 -6 65 -6 30 0 54 -3 54 -8 0 -9 -40 -25 -53 -22 -4 1 -17 -2
-27 -8 -11 -6 -37 -12 -57 -15 -21 -2 -66 -9 -101 -15 -35 -6 -80 -11 -100
-12 -20 -1 -39 -5 -42 -9 -3 -4 -39 -10 -80 -13 -41 -3 -111 -10 -155 -16 -44
-5 -111 -12 -150 -16 -38 -3 -80 -10 -92 -15 -13 -5 -29 -6 -36 -3 -8 3 -25
-4 -38 -15 l-24 -20 53 4 c28 2 57 7 63 11 7 4 54 8 107 10 52 1 98 6 101 11
3 4 24 9 46 11 21 1 42 8 46 14 6 9 12 8 24 -2 14 -11 18 -11 25 -1 4 8 12 11
16 9 13 -8 144 10 158 20 6 5 77 12 157 16 122 5 155 4 195 -10 60 -20 74 -37
37 -44 -15 -3 -27 -9 -27 -15 0 -15 -48 -37 -68 -31 -10 2 -25 -2 -32 -10 -16
-15 -72 -20 -100 -9 -13 6 -17 5 -13 -2 5 -8 -28 -13 -99 -18 -65 -5 -101 -11
-93 -16 11 -7 10 -9 -3 -9 -9 0 -19 4 -22 8 -3 5 -19 7 -35 4 -17 -2 -28 -8
-25 -14 3 -5 -5 -6 -20 -2 -16 4 -32 1 -41 -6 -12 -10 -18 -10 -30 0 -8 6 -19
9 -26 5 -6 -4 -36 -9 -67 -12 -30 -2 -60 -7 -66 -11 -6 -4 -27 -7 -46 -8 -19
-1 -51 -5 -70 -8 -19 -4 -59 -9 -87 -12 -50 -6 -53 -8 -53 -35 0 -21 6 -29 23
-32 l22 -4 -22 -2 -23 -1 0 -586 0 -586 25 4 c14 3 28 1 31 -3 3 -5 0 -9 -5
-9 -6 0 -11 -4 -11 -10 0 -19 28 -10 33 10 6 22 57 29 57 8 0 -6 7 -4 18 5 20
19 42 22 42 8 0 -5 -8 -12 -17 -15 -10 -2 0 -4 22 -4 102 2 115 -1 116 -24 1
-21 2 -21 6 -3 9 36 21 44 48 31 14 -6 25 -16 25 -22 0 -6 10 -10 23 -10 13 1
21 -4 19 -12 -1 -8 2 -11 8 -7 5 3 10 1 10 -5 0 -6 8 -10 17 -9 42 4 47 0 28
-21 -20 -22 -195 -158 -226 -176 -11 -6 -30 -20 -42 -31 -33 -29 -107 -74
-107 -66 0 5 -4 2 -9 -6 -5 -7 -20 -13 -35 -13 -14 0 -26 -4 -26 -9 0 -5 -10
-8 -22 -6 l-23 2 -3 -357 c-1 -197 0 -358 2 -358 2 0 56 11 120 25 64 14 120
25 126 25 15 0 12 -40 -2 -41 -7 -1 -2 -4 12 -8 19 -5 25 -14 26 -36 0 -17 5
-46 12 -65 13 -40 69 -281 142 -620 12 -52 32 -142 45 -200 26 -116 43 -207
50 -260 2 -19 11 -69 20 -110 23 -106 61 -285 89 -420 13 -63 50 -233 82 -377
31 -145 55 -265 52 -269 -4 -3 -30 -9 -60 -13 -29 -4 -60 -11 -67 -15 -8 -5
-29 -10 -47 -11 -18 -1 -45 -10 -59 -19 -27 -18 -154 -55 -410 -121 l-130 -33
-3 -411 -2 -410 52 22 c29 11 55 24 58 27 8 10 104 54 120 56 9 0 25 6 37 13
25 13 151 17 204 6 33 -6 38 -4 77 40 30 34 68 60 152 101 111 55 190 114 190
140 0 8 3 14 8 14 4 0 25 17 47 38 56 51 144 108 183 116 17 4 41 15 54 25 13
10 46 30 74 44 73 37 108 82 123 154 12 65 53 136 118 206 59 64 101 92 158
106 89 23 249 81 275 102 18 14 20 17 6 12 -19 -6 -19 -6 0 26 24 41 98 114
88 86 -7 -18 -6 -18 9 -6 9 7 14 17 11 22 -5 8 34 29 79 43 10 3 16 10 13 14
-3 5 7 8 22 6 15 -2 19 -1 8 2 -17 5 -16 7 5 18 34 18 55 9 34 -14 -9 -10 -12
-20 -7 -23 4 -4 16 3 25 14 9 10 22 19 29 19 9 0 8 -3 -2 -10 -8 -5 -10 -10
-5 -10 7 0 7 -3 0 -8 -5 -4 -17 -16 -25 -26 -14 -18 -13 -19 4 -13 15 6 17 4
12 -17 -3 -14 -2 -27 3 -30 5 -3 14 -27 20 -52 7 -26 25 -65 40 -88 32 -46
219 -239 266 -274 17 -12 62 -47 102 -77 40 -30 74 -55 77 -55 3 0 25 -14 50
-31 40 -29 46 -30 60 -16 14 13 14 16 0 27 -12 11 -13 10 -8 -6 7 -18 7 -18
-15 0 -12 11 -18 22 -13 25 5 3 12 14 15 25 6 14 14 17 34 13 18 -3 32 1 41
11 12 15 13 15 9 -5 -4 -20 -1 -22 21 -20 15 1 28 -2 29 -7 3 -18 32 -26 58
-16 18 7 33 7 46 -1 12 -6 25 -7 32 -2 7 5 17 9 22 8 16 -1 51 -24 39 -25 -7
0 -14 -7 -17 -14 -4 -10 -1 -13 9 -9 8 3 14 -1 14 -10 0 -10 7 -13 21 -10 12
4 32 -3 49 -16 16 -11 38 -21 49 -21 33 0 34 -18 1 -22 -29 -3 -30 -4 -17 -22
14 -19 16 -19 31 -3 18 18 72 24 61 7 -3 -5 1 -10 9 -10 12 0 15 -9 14 -33 -3
-31 -2 -32 35 -31 39 1 46 -6 23 -26 -8 -6 -12 -19 -9 -28 3 -11 2 -13 -4 -6
-11 15 -67 28 -58 14 3 -5 -1 -10 -9 -10 -9 0 -16 5 -16 10 0 6 -5 10 -11 10
-8 0 -8 -5 1 -15 7 -8 21 -15 31 -15 10 0 21 -5 24 -10 9 -15 -40 -2 -87 21
-21 11 -48 19 -60 19 -13 0 -38 13 -56 30 -21 18 -40 26 -49 23 -13 -5 -11 -8
8 -15 13 -5 31 -16 40 -24 10 -9 35 -21 56 -28 21 -6 63 -25 93 -41 30 -16 63
-30 73 -32 10 -2 28 -9 40 -17 12 -8 37 -17 55 -21 18 -4 30 -11 26 -16 -3 -5
0 -9 5 -9 6 0 11 5 11 12 0 9 3 9 12 0 7 -7 20 -12 30 -12 10 0 18 -4 18 -9 0
-5 12 -8 27 -8 15 0 29 -5 31 -11 1 -5 12 -8 22 -5 14 4 20 0 20 -11 0 -9 8
-17 18 -17 9 -1 22 -2 27 -4 6 -1 15 -3 22 -3 6 -1 14 -10 16 -19 4 -17 5 -17
6 0 1 19 21 24 21 5 0 -6 7 -3 15 8 14 18 14 17 15 -15 0 -32 1 -33 23 -18 45
29 98 12 65 -21 -9 -9 -8 -12 5 -12 10 0 17 8 17 18 0 11 7 18 20 18 25 0 26
-12 3 -25 -10 -5 -15 -12 -12 -15 3 -4 17 3 32 14 30 24 47 26 47 5 0 -8 -5
-15 -12 -15 -6 0 -8 -3 -4 -7 4 -5 13 0 20 9 9 12 25 16 57 15 58 -3 72 -13
65 -46 -6 -24 -5 -25 9 -7 8 10 12 22 10 26 -2 4 2 7 10 7 10 0 12 -4 5 -12
-8 -9 -4 -14 15 -17 14 -3 25 -1 25 3 0 5 -4 9 -10 9 -5 0 -10 8 -10 18 0 14
2 15 10 2 6 -10 10 -11 10 -2 0 6 10 12 23 12 16 0 19 -3 8 -9 -19 -12 -6 -45
15 -37 9 3 22 6 30 6 12 0 12 2 2 14 -7 8 -16 12 -20 9 -5 -2 -8 0 -8 6 0 6
16 10 35 9 19 -1 35 -5 35 -10 0 -4 -5 -8 -11 -8 -5 0 -7 -5 -3 -11 5 -8 9 -8
14 1 5 9 9 9 14 1 4 -6 13 -11 19 -11 7 0 3 7 -8 16 -17 13 -18 16 -5 24 9 6
16 6 18 0 2 -6 10 -6 22 0 13 7 20 6 23 -3 4 -9 6 -9 6 1 1 14 62 17 76 3 6
-5 21 -12 35 -16 19 -5 22 -4 10 4 -13 10 -13 12 0 21 10 6 16 6 18 -1 2 -5
13 0 24 13 20 23 20 23 14 1 -9 -29 12 -40 32 -17 10 10 10 13 2 6 -20 -18
-29 -15 -23 8 3 11 9 17 14 15 4 -3 25 1 45 10 20 8 41 12 47 8 5 -3 16 2 24
12 9 14 13 15 13 4 1 -9 7 -7 19 9 11 12 26 22 35 22 9 0 16 5 16 10 0 6 6 10
13 10 7 0 23 11 35 25 12 13 33 27 47 31 14 3 25 12 25 20 0 8 4 14 9 14 8 0
36 22 103 82 17 16 34 28 39 28 4 0 5 8 2 18 -2 11 6 32 19 48 34 42 52 80 45
98 -3 8 -2 18 3 21 6 4 10 20 10 36 0 18 4 28 10 24 15 -9 11 24 -9 84 -11 30
-16 61 -13 69 4 11 1 14 -10 9 -11 -3 -18 1 -21 13 -3 11 0 21 7 23 7 3 3 15
-11 33 -30 38 -56 85 -50 90 2 3 12 -11 21 -31 9 -19 21 -35 25 -35 8 0 34
-54 32 -65 -1 -3 7 -17 19 -32 11 -14 20 -34 20 -43 0 -10 7 -34 15 -54 8 -20
12 -36 9 -36 -4 0 -1 -6 5 -13 6 -8 8 -17 4 -20 -10 -10 -12 -67 -2 -67 5 0 9
8 9 18 0 10 12 25 28 34 27 16 28 16 52 -10 14 -14 20 -23 13 -19 -6 4 -14 3
-18 -2 -3 -6 3 -8 15 -6 21 4 28 -9 10 -20 -5 -3 -10 -11 -10 -17 0 -6 8 -3
19 8 14 14 16 22 8 32 -6 8 -12 24 -14 35 -2 12 -15 30 -28 40 -28 21 -25 37
6 37 11 0 23 -9 28 -22 l8 -22 6 24 c6 24 -16 56 -33 45 -5 -3 -15 3 -21 14
-7 10 -19 17 -26 14 -8 -3 -13 -2 -12 3 4 21 -2 33 -18 37 -15 4 -14 5 3 6 12
0 29 12 39 25 l18 24 22 -22 c12 -11 28 -37 35 -56 24 -62 60 -101 60 -65 0
19 14 19 30 0 11 -13 14 -13 26 2 18 24 17 13 -1 -31 -9 -20 -21 -39 -29 -42
-7 -3 -13 -11 -13 -19 0 -14 33 -15 56 -1 5 3 8 -2 7 -11 0 -9 5 -18 13 -21 8
-2 11 0 8 5 -8 12 40 63 59 63 9 0 12 13 11 43 -2 38 0 42 20 40 16 -2 21 3
20 17 -2 26 -19 26 -37 0 -18 -25 -27 -25 -35 1 -4 12 -12 18 -21 15 -28 -11
-22 12 12 48 35 37 39 56 14 64 -9 3 -11 -2 -6 -22 6 -23 3 -26 -20 -26 -19 0
-25 -4 -20 -15 3 -8 2 -15 -3 -15 -5 0 -11 -9 -14 -21 -4 -13 -10 -18 -18 -13
-8 4 -10 3 -5 -5 4 -7 13 -10 19 -8 7 2 18 -3 26 -10 10 -11 16 -11 21 -3 5 8
9 7 14 -5 9 -23 8 -25 -9 -25 -9 0 -18 -7 -21 -15 -4 -8 -11 -15 -16 -15 -6 0
-4 7 3 16 11 14 10 18 -6 30 -17 13 -21 13 -33 -3 -11 -16 -14 -16 -22 -3 -7
11 -5 16 6 18 11 3 9 9 -12 27 -25 22 -26 24 -11 40 20 19 22 35 5 35 -9 0 -9
3 0 12 10 10 15 10 21 -1 7 -11 9 -11 13 0 3 8 9 11 13 7 4 -4 2 -16 -6 -25
-11 -14 -9 -14 9 2 13 11 19 21 13 23 -6 2 -11 12 -11 22 0 10 -7 21 -16 24
-8 3 -12 2 -9 -4 3 -5 -7 -8 -24 -7 -19 1 -32 8 -34 19 -3 10 -2 16 2 15 3 -1
17 8 30 20 13 12 28 20 34 16 5 -3 4 4 -2 14 -6 11 -7 23 -4 27 3 3 1 6 -5 6
-6 0 -16 -9 -22 -20 -14 -26 -33 -26 -25 0 8 25 0 25 -25 0 -22 -22 -40 -26
-40 -9 0 6 10 13 21 16 20 6 21 7 5 18 -9 7 -26 10 -37 8 -19 -5 -20 -4 -8 15
11 17 11 24 1 34 -6 6 -12 16 -12 20 0 12 52 -3 68 -19 7 -7 19 -13 27 -13 7
0 15 -6 18 -12 4 -10 7 -10 17 -1 11 10 11 18 1 39 -8 19 -9 30 -1 38 7 7 10
5 10 -6 0 -9 11 -19 24 -22 28 -7 44 -36 19 -36 -12 0 -13 -3 -4 -14 8 -10 9
-16 1 -21 -6 -3 -8 -11 -4 -16 3 -5 10 -6 16 -3 6 4 14 0 19 -7 7 -11 9 -10 9
4 0 9 7 17 15 17 17 0 20 -16 5 -25 -6 -3 -5 -15 2 -30 13 -28 19 -30 36 -13
16 16 15 29 0 26 -8 -2 -14 9 -16 24 -3 23 0 27 15 21 16 -6 17 -5 3 12 -8 10
-10 16 -3 12 6 -4 14 -1 17 5 5 10 7 10 12 1 9 -21 23 -15 17 7 -6 23 -5 23
68 11 30 -5 95 -12 144 -15 50 -3 115 -13 145 -21 30 -9 98 -22 151 -31 187
-28 512 -152 609 -231 125 -102 371 -381 500 -569 14 -20 40 -53 58 -74 17
-20 32 -41 32 -46 1 -5 19 -27 40 -49 22 -22 40 -44 40 -50 0 -5 14 -24 30
-42 17 -18 30 -35 30 -38 0 -4 11 -21 25 -39 14 -18 25 -38 25 -44 0 -7 4 -12
8 -12 5 0 19 -19 32 -43 13 -23 52 -83 87 -134 35 -50 63 -94 63 -98 0 -4 8
-17 18 -30 20 -26 27 -37 82 -120 22 -33 40 -64 40 -68 0 -24 43 -67 66 -67
22 0 24 4 24 49 0 39 -8 63 -35 110 -19 33 -41 66 -49 73 -7 8 -21 28 -30 46
-15 29 -114 183 -133 207 -4 6 -19 30 -32 55 -13 25 -32 54 -42 66 -11 11 -19
23 -19 26 0 9 -64 102 -103 150 -19 24 -59 79 -88 123 -122 183 -379 499 -456
562 -26 21 -50 41 -53 44 -9 9 -98 69 -104 69 -3 0 -39 15 -78 33 -149 69
-295 115 -428 137 -41 7 -111 23 -155 35 -44 12 -121 25 -171 29 -70 5 -118
16 -204 47 -62 22 -118 43 -124 47 -6 3 -15 7 -21 9 -37 8 -91 33 -99 46 -7
11 0 30 28 70 20 30 43 69 50 88 22 61 95 197 121 224 35 38 72 124 86 198 6
34 15 67 20 73 5 7 11 28 13 48 2 20 10 44 18 54 32 37 63 125 91 257 16 73
10 429 -8 485 -8 25 -17 63 -20 85 -3 22 -13 59 -22 83 -12 33 -15 64 -10 144
4 75 2 109 -8 128 -20 38 -21 207 -1 238 4 7 9 36 11 65 14 199 25 300 36 336
11 37 61 101 79 101 14 0 20 63 21 225 0 141 -2 166 -20 206 -19 41 -19 52 -9
102 11 50 10 64 -7 115 -10 31 -22 61 -26 66 -4 5 -5 15 -2 22 3 8 1 14 -3 14
-5 0 -9 24 -8 53 0 28 -4 61 -10 72 -6 11 -10 23 -11 27 0 3 -3 10 -7 14 -12
12 -9 54 3 54 8 0 8 5 -1 15 -19 22 -20 97 -2 118 9 10 10 17 4 17 -13 0 -10
37 6 66 6 11 11 36 11 55 0 44 8 125 17 169 8 40 8 72 1 112 -2 16 1 32 9 38
8 7 11 30 9 63 -1 29 -1 42 2 29 5 -26 23 -20 23 8 0 10 -9 22 -20 25 -11 4
-18 10 -15 15 3 4 -2 21 -10 36 -17 33 -20 58 -5 49 15 -9 12 2 -7 33 -32 51
-75 102 -82 98 -4 -3 -7 4 -7 15 0 10 4 19 9 19 4 0 6 4 2 10 -3 5 -13 6 -22
3 -10 -4 -14 -2 -10 4 12 18 -9 57 -38 73 -18 10 -25 20 -21 33 5 19 -27 56
-49 57 -6 0 -16 9 -22 19 -7 12 -19 17 -31 15 -18 -5 -88 49 -92 71 -1 6 -8
26 -16 45 -8 19 -12 45 -9 58 4 18 2 22 -11 20 -9 -2 -19 3 -22 11 -3 8 0 11
7 7 6 -4 11 -2 11 3 0 6 -7 11 -16 11 -8 0 -12 5 -9 10 3 6 1 10 -5 10 -7 0
-9 7 -6 16 7 17 -15 75 -41 107 -17 22 -53 26 -53 6 0 -5 -5 -9 -11 -9 -8 0
-8 4 -1 13 6 7 10 19 9 28 -6 35 -81 81 -124 75 -10 -2 -30 10 -44 26 -16 16
-37 28 -52 28 -14 0 -29 5 -32 10 -3 6 -11 10 -16 10 -6 0 -7 -4 -4 -10 3 -6
-1 -7 -9 -4 -9 3 -14 10 -11 14 7 12 -35 36 -75 43 -19 4 -72 7 -117 9 -46 1
-83 5 -83 8 0 9 -44 7 -51 -3 -7 -9 -39 2 -39 13 0 5 9 6 20 3 11 -3 20 0 20
6 0 6 -11 11 -24 11 -13 0 -33 12 -47 29 -28 32 -74 45 -94 25 -11 -11 -18
-11 -37 -1 -57 31 -18 40 97 22 l30 -5 -30 15 c-16 8 -39 14 -50 15 -40 1 -66
12 -61 27 3 8 2 11 -4 8 -13 -8 -42 39 -34 59 4 10 1 16 -9 16 -8 0 -18 -7
-21 -16 -6 -15 -8 -15 -26 1 -20 18 -26 40 -12 48 4 2 1 2 -6 1 -16 -4 -42 6
-42 16 0 5 10 6 23 3 20 -5 20 -4 -6 17 -23 18 -30 20 -43 9 -9 -7 -35 -14
-59 -15 -27 -1 -54 -9 -70 -23 l-27 -21 -30 25 c-16 13 -47 30 -68 36 -32 10
-40 17 -40 36 0 12 -5 23 -11 23 -6 0 -8 -7 -5 -16 5 -13 -3 -15 -46 -12 -40
2 -52 7 -54 21 -3 20 16 23 35 5 10 -11 11 -10 6 4 -4 10 -14 20 -24 23 -14 4
-16 18 -15 90 2 76 0 85 -16 85 -10 0 -21 -8 -25 -17 -6 -17 -7 -17 -19 0 -12
16 -67 17 -910 17 -566 0 -896 -4 -896 -10 0 -5 9 -49 21 -97 11 -48 29 -128
39 -178 11 -49 29 -130 40 -180 12 -49 30 -130 40 -180 44 -202 51 -231 56
-247 3 -10 -4 -26 -17 -39 -16 -16 -18 -21 -6 -16 9 3 17 2 17 -4 0 -6 5 -7
11 -3 8 4 8 0 0 -15 -13 -24 -23 -28 -15 -6 9 22 -4 18 -29 -8 -30 -32 -77
-44 -77 -20 -1 17 -1 17 -11 0 -6 -9 -14 -15 -19 -12 -5 3 -12 0 -16 -6 -4 -8
-3 -9 4 -5 26 16 10 -15 -18 -36 -16 -12 -30 -30 -30 -40 0 -10 -4 -18 -10
-18 -5 0 -10 9 -10 21 0 11 -5 29 -10 39 -6 11 -21 70 -34 132 -13 62 -45 205
-71 318 -26 113 -58 255 -71 315 -13 61 -33 148 -44 195 -11 47 -20 88 -20 93
0 4 -427 7 -950 7 l-950 0 0 -706z m4001 543 c-10 -9 -11 -8 -5 6 3 10 9 15
12 12 3 -3 0 -11 -7 -18z m4 -76 c9 -15 -33 -23 -52 -11 -16 10 -16 11 -1 6
10 -3 20 -1 23 4 8 13 22 13 30 1z m100 -27 c-34 -17 -35 -17 -35 0 0 8 10 16
23 18 35 6 41 -3 12 -18z m-229 -26 c-9 -5 -22 -7 -29 -4 -7 2 -4 5 6 5 9 1
17 6 17 12 0 5 5 7 11 3 8 -5 6 -10 -5 -16z m131 6 c-3 -3 -12 -4 -19 -1 -8 3
-5 6 6 6 11 1 17 -2 13 -5z m452 -20 c2 -2 -4 -4 -14 -4 -14 0 -15 -3 -5 -15
10 -13 9 -15 -8 -15 -12 0 -23 -4 -26 -8 -3 -5 15 -6 39 -2 25 4 45 3 45 -2 0
-5 4 -7 8 -4 4 2 14 1 21 -3 7 -5 -14 -8 -50 -7 -35 0 -74 -3 -86 -7 -15 -5
-23 -4 -23 2 0 6 7 11 16 11 11 0 14 6 9 21 -5 16 -4 20 6 15 8 -4 6 -1 -4 7
-18 15 -18 15 0 20 17 4 63 -2 72 -9z m-389 -14 c0 -5 -4 -10 -10 -10 -5 0
-10 5 -10 10 0 6 5 10 10 10 6 0 10 -4 10 -10z m265 -28 c-3 -3 -11 0 -18 7
-9 10 -8 11 6 5 10 -3 15 -9 12 -12z m110 -42 c-27 -12 -43 -12 -25 0 8 5 22
9 30 9 10 0 8 -3 -5 -9z m145 -11 c11 -19 10 -20 -9 -9 -22 11 -29 30 -11 30
5 0 14 -9 20 -21z m-80 7 c0 -2 -7 -7 -16 -10 -8 -3 -12 -2 -9 4 6 10 25 14
25 6z m-65 -56 c3 -5 2 -10 -4 -10 -5 0 -13 5 -16 10 -3 6 -2 10 4 10 5 0 13
-4 16 -10z m91 -10 c8 0 14 -4 14 -10 0 -5 -14 -10 -30 -10 -29 0 -30 1 -19
22 8 14 14 18 17 10 2 -6 10 -12 18 -12z m-1 -60 c-5 -15 -2 -20 12 -21 11 0
13 -3 5 -6 -7 -3 -19 0 -27 7 -11 9 -12 15 -2 25 17 20 19 18 12 -5z m115 -15
c10 -12 10 -15 -4 -15 -9 0 -16 7 -16 15 0 8 2 15 4 15 2 0 9 -7 16 -15z m113
9 c6 -6 -16 -34 -27 -34 -3 0 -6 9 -6 20 0 19 20 27 33 14z m22 -54 c-3 -5
-10 -10 -16 -10 -5 0 -9 5 -9 10 0 6 7 10 16 10 8 0 12 -4 9 -10z m-148 -6
c-3 -3 -12 -4 -19 -1 -8 3 -5 6 6 6 11 1 17 -2 13 -5z m373 -34 c10 -6 2 -7
-25 -3 -49 7 -58 13 -19 13 16 0 36 -5 44 -10z m144 -11 c15 -13 -2 -23 -17
-11 -7 6 -29 10 -48 8 -19 -2 -24 -1 -11 1 12 2 22 9 22 14 0 11 39 2 54 -12z
m-99 -29 c3 -6 -1 -7 -9 -4 -18 7 -21 14 -7 14 6 0 13 -4 16 -10z m425 -200
c0 -5 -2 -10 -4 -10 -3 0 -8 5 -11 10 -3 6 -1 10 4 10 6 0 11 -4 11 -10z m9
-95 c0 -5 -4 -3 -9 5 -5 8 -9 22 -9 30 0 16 17 -16 18 -35z m-28 -12 c5 -14 8
-28 5 -30 -4 -5 -36 50 -36 62 0 14 22 -9 31 -32z m48 -48 c0 -5 -4 -3 -9 5
-5 8 -9 22 -9 30 0 16 17 -16 18 -35z m-3209 -25 c-8 -5 -19 -10 -25 -10 -5 0
-3 5 5 10 8 5 20 10 25 10 6 0 3 -5 -5 -10z m3454 -168 c3 -5 -1 -9 -9 -9 -8
0 -12 4 -9 9 3 4 7 8 9 8 2 0 6 -4 9 -8z m-3825 -94 c-1 -18 1 -54 5 -79 6
-35 4 -48 -8 -58 -13 -11 -16 -7 -25 26 -5 21 -14 57 -20 79 -14 54 -14 60 5
78 14 14 17 14 30 1 8 -8 14 -29 13 -47z m3851 52 c0 -5 -4 -10 -10 -10 -5 0
-10 5 -10 10 0 6 5 10 10 10 6 0 10 -4 10 -10z m-4620 -25 c0 -7 -30 -13 -34
-7 -3 4 4 9 15 9 10 1 19 0 19 -2z m43 -2 c-7 -2 -19 -2 -25 0 -7 3 -2 5 12 5
14 0 19 -2 13 -5z m448 -150 c34 -20 50 -67 47 -139 -1 -27 2 -59 6 -71 5 -14
3 -23 -3 -23 -6 0 -11 -7 -11 -15 0 -27 -18 -16 -30 19 -20 62 -58 231 -54
238 7 11 12 10 45 -9z m-582 -67 c-9 -8 -10 -7 -5 7 3 10 7 26 7 35 1 9 4 6 6
-7 3 -13 -1 -28 -8 -35z m37 6 c-11 -10 -15 4 -8 28 l7 25 3 -23 c2 -13 1 -26
-2 -30z m4894 -72 c0 -5 -4 -10 -9 -10 -6 0 -13 5 -16 10 -3 6 1 10 9 10 9 0
16 -4 16 -10z m-5790 -100 c0 -5 -5 -10 -11 -10 -5 0 -7 5 -4 10 3 6 8 10 11
10 2 0 4 -4 4 -10z m-163 -26 c-3 -3 -12 -4 -19 -1 -8 3 -5 6 6 6 11 1 17 -2
13 -5z m186 -21 c-7 -2 -21 -2 -30 0 -10 3 -4 5 12 5 17 0 24 -2 18 -5z m1471
-8 c-4 -8 -2 -15 3 -15 5 0 8 -13 5 -30 -2 -16 -9 -27 -14 -24 -5 3 -7 17 -4
29 3 13 1 27 -5 31 -8 4 -7 9 2 15 19 12 19 11 13 -6z m-1569 -6 c-22 -4 -51
-8 -65 -7 -35 1 34 15 75 16 25 0 23 -2 -10 -9z m638 4 c-7 -2 -19 -2 -25 0
-7 3 -2 5 12 5 14 0 19 -2 13 -5z m-173 -17 c0 -2 -9 -6 -20 -9 -11 -3 -18 -1
-14 4 5 9 34 13 34 5z m37 -2 c-3 -3 -12 -4 -19 -1 -8 3 -5 6 6 6 11 1 17 -2
13 -5z m-117 -18 c0 -2 -11 -6 -25 -8 -13 -3 -22 -1 -19 3 5 9 44 13 44 5z
m-130 -16 c-8 -5 -22 -9 -30 -9 -10 0 -8 3 5 9 27 12 43 12 25 0z m5640 0 c0
-5 -4 -10 -10 -10 -5 0 -10 5 -10 10 0 6 5 10 10 10 6 0 10 -4 10 -10z m-5760
-20 c-33 -11 -80 -12 -80 -2 0 4 24 8 53 9 39 1 46 -1 27 -7z m3740 -72 c0 -5
-8 -8 -17 -7 -10 0 -13 3 -6 5 7 3 9 13 6 22 -4 15 -3 15 6 2 6 -8 11 -18 11
-22z m65 12 c3 -5 1 -10 -4 -10 -6 0 -11 5 -11 10 0 6 2 10 4 10 3 0 8 -4 11
-10z m277 -12 c6 6 16 12 21 12 16 0 -5 -20 -41 -40 -20 -10 -31 -19 -24 -20
7 0 31 9 53 20 22 12 45 18 50 14 6 -4 15 0 20 7 10 17 21 7 23 -24 1 -17 6
-23 19 -19 9 2 17 -1 17 -7 0 -6 -8 -11 -17 -11 -22 0 -50 -17 -42 -25 4 -3
19 -1 34 5 45 17 85 19 114 4 14 -8 35 -14 47 -14 24 0 60 -31 69 -60 3 -11
10 -20 15 -20 5 0 19 -10 32 -23 13 -12 38 -33 56 -46 18 -13 30 -26 26 -30
-4 -3 -9 0 -11 7 -3 6 -12 12 -21 12 -13 0 -11 -5 8 -24 14 -13 28 -19 31 -13
10 14 31 -2 25 -19 -3 -8 1 -14 8 -14 7 0 18 -11 24 -25 6 -14 16 -25 21 -25
5 0 14 -14 21 -31 10 -22 15 -27 21 -17 7 10 9 9 9 -3 0 -9 6 -22 14 -28 8 -7
17 -30 21 -51 4 -21 13 -44 21 -51 8 -6 14 -17 14 -24 0 -7 11 -24 25 -39 14
-15 25 -38 25 -51 0 -13 5 -27 10 -30 6 -3 10 -20 10 -36 0 -18 6 -32 16 -36
9 -3 14 -13 11 -24 -7 -27 19 -105 33 -101 8 2 11 -4 7 -18 -4 -15 1 -22 19
-26 13 -3 24 -13 24 -21 0 -8 -4 -12 -9 -9 -5 4 -7 -3 -4 -14 6 -23 -7 -26
-26 -7 -11 10 -12 8 -6 -12 5 -15 3 -26 -6 -31 -10 -7 -10 -11 0 -24 17 -20
35 -21 27 -1 -3 8 -1 15 4 15 6 0 10 8 10 19 0 10 6 24 14 30 19 16 54 -5 62
-36 4 -13 11 -20 17 -16 6 4 7 1 3 -6 -5 -7 0 -21 10 -32 15 -17 16 -22 4 -29
-11 -7 -10 -11 3 -25 10 -9 17 -23 17 -31 0 -8 7 -26 16 -40 19 -28 12 -43
-10 -25 -8 7 -19 10 -25 7 -5 -4 -15 0 -23 7 -7 8 -19 12 -26 11 -7 -1 -8 0
-2 3 16 8 11 30 -8 35 -10 3 -26 20 -35 39 -9 19 -26 40 -37 47 -25 15 -25 15
-34 -13 -4 -15 0 -23 17 -31 12 -5 21 -16 19 -23 -1 -7 5 -19 15 -27 10 -7 13
-14 7 -14 -6 0 -25 13 -42 30 -17 16 -43 32 -57 36 -19 5 -24 11 -20 22 3 9 3
13 -1 10 -4 -4 -16 -3 -27 3 -14 8 -18 8 -13 0 10 -16 1 -14 -44 9 -51 26 -57
25 -26 -4 15 -13 26 -26 26 -29 0 -3 -26 3 -57 14 -43 14 -59 16 -67 8 -8 -9
-8 -10 1 -5 11 6 73 -18 73 -29 0 -7 -75 7 -84 16 -16 14 -29 10 -22 -6 3 -8
1 -15 -4 -15 -5 0 -7 -8 -4 -17 4 -11 3 -14 -3 -7 -4 6 -30 16 -57 22 l-49 10
29 -23 28 -23 -41 -7 c-23 -3 -48 -3 -54 1 -8 5 -9 3 -4 -6 5 -9 1 -10 -16 -6
l-24 7 25 -16 c24 -15 24 -15 -25 -11 -27 3 -61 8 -75 12 -24 6 -24 6 -5 -9
11 -9 25 -17 32 -17 6 0 15 -5 19 -12 5 -8 -2 -9 -25 -5 -23 5 -37 2 -48 -9
-10 -10 -30 -14 -54 -13 -21 2 -41 0 -45 -4 -4 -4 1 -7 12 -7 27 0 -38 -39
-79 -47 -31 -7 -32 -7 -7 -14 24 -6 24 -7 5 -15 -11 -4 -25 -15 -32 -23 -7 -9
-13 -11 -13 -5 0 14 -114 -43 -118 -59 -2 -7 1 -5 7 3 5 8 13 11 17 7 9 -8
-16 -38 -26 -32 -5 3 -11 -4 -15 -15 -4 -11 -10 -18 -15 -15 -4 3 -7 -3 -6
-13 0 -9 -5 -16 -11 -15 -7 2 -12 -2 -10 -9 1 -6 -7 -13 -18 -15 -15 -3 -16
-2 -7 5 8 5 12 20 9 33 l-4 24 -8 -22 c-4 -13 -11 -23 -16 -23 -5 0 -9 -7 -9
-15 0 -8 -2 -15 -4 -15 -2 0 -10 -2 -18 -5 -10 -4 -13 7 -14 42 -1 35 1 42 7
25 11 -29 14 -28 15 8 1 17 -3 30 -7 30 -5 0 -9 6 -9 13 0 6 -7 25 -15 41 -8
15 -13 31 -10 35 2 4 -4 14 -13 22 -38 33 -43 31 -26 -11 20 -49 12 -65 -11
-21 -8 17 -23 31 -33 31 -15 0 -15 -2 -2 -11 11 -8 9 -9 -10 -3 -14 3 -37 15
-52 25 -14 11 -30 19 -35 19 -4 0 -1 -4 7 -10 25 -16 7 -19 -32 -5 -22 7 -35
8 -31 2 4 -6 -6 -7 -28 -3 -19 4 -54 11 -79 15 -25 5 -37 9 -28 10 9 0 19 4
21 9 3 4 -26 5 -65 4 -49 -3 -68 0 -64 7 4 6 14 11 22 11 8 0 14 7 14 15 0 13
-4 14 -21 5 -11 -7 -23 -9 -26 -7 -2 3 -20 -1 -38 -9 -31 -13 -34 -12 -40 6
-4 11 -11 17 -17 14 -6 -4 -5 -10 3 -15 9 -6 2 -7 -18 -3 -23 5 -33 3 -33 -6
0 -10 -5 -9 -17 2 -12 11 -25 13 -38 8 -35 -15 -49 -12 -35 5 21 25 -6 17 -31
-10 -13 -13 -29 -25 -35 -25 -16 0 -12 32 6 48 12 10 9 10 -15 0 -16 -6 -39
-20 -51 -30 -37 -33 -37 -19 0 17 21 19 33 35 27 35 -5 0 -12 -4 -15 -9 -4 -5
-32 -17 -64 -26 -31 -10 -67 -28 -79 -41 -12 -13 -28 -24 -36 -24 -8 0 -22 -9
-32 -20 -10 -12 -25 -18 -33 -15 -7 3 -22 0 -32 -5 -13 -7 -21 -7 -25 1 -5 7
-16 2 -32 -13 l-24 -23 3 25 c2 14 7 31 12 38 10 16 -1 29 -13 16 -14 -14 -50
-115 -39 -108 7 4 7 0 0 -12 -13 -23 -78 -85 -68 -64 5 9 2 8 -7 -2 -16 -21
-32 -24 -21 -5 4 6 3 9 -1 4 -14 -13 -17 -49 -3 -41 7 4 3 -6 -9 -22 -11 -16
-26 -40 -32 -52 -12 -22 -11 -23 11 -17 20 5 20 4 5 -5 -9 -6 -21 -9 -26 -5
-5 3 -12 1 -15 -4 -13 -21 -205 -61 -290 -61 -25 0 -34 4 -32 16 1 8 9 20 17
25 9 7 5 7 -15 3 -21 -5 -27 -4 -22 5 4 6 2 11 -5 11 -7 0 -5 8 6 20 12 13 14
20 6 20 -7 0 -11 5 -9 11 2 6 6 9 9 7 15 -8 38 26 34 51 -5 22 -4 23 4 6 9
-18 10 -18 10 -2 1 10 6 15 12 12 6 -4 17 1 24 11 16 22 19 38 6 30 -11 -7
-20 14 -13 31 2 7 9 10 15 6 7 -4 8 4 4 24 -6 30 10 83 25 83 4 0 5 10 3 22
-3 13 3 29 15 40 23 21 25 17 9 -15 -9 -16 -4 -14 18 8 24 24 27 32 16 40 -11
8 -9 15 9 35 13 14 38 42 56 63 17 21 32 35 32 31 0 -10 48 43 60 66 6 11 17
20 25 20 8 0 15 6 15 14 0 8 5 18 11 22 8 4 9 -1 5 -17 -6 -20 -5 -21 4 -7 6
10 10 20 10 24 -1 3 21 16 47 29 45 21 173 111 173 121 0 6 -14 -2 -64 -38
-39 -28 -62 -36 -51 -18 3 6 1 10 -4 10 -6 0 -11 -6 -11 -14 0 -14 -29 -31
-38 -21 -3 2 3 7 12 11 9 3 14 10 11 14 -3 5 11 25 31 45 20 20 34 39 31 42
-7 7 28 74 53 101 20 22 27 37 11 28 -4 -3 -5 13 0 37 11 55 11 57 0 57 -5 0
-12 -19 -16 -42 -7 -38 -8 -40 -14 -18 -4 14 -4 27 -1 30 4 3 10 15 14 28 4
12 12 20 17 17 5 -4 9 3 9 14 0 12 5 21 10 21 6 0 10 -8 10 -17 0 -16 2 -16
10 -3 8 11 10 6 8 -20 -2 -21 -8 -34 -15 -33 -7 2 -10 -4 -7 -12 4 -9 1 -22
-6 -30 -7 -9 -10 -18 -6 -22 8 -8 35 27 36 48 0 8 4 19 10 25 5 5 10 24 12 43
2 24 9 36 28 46 15 8 33 21 41 31 13 16 12 16 -9 5 -38 -20 -35 -7 8 41 48 55
53 73 8 32 -18 -16 -43 -38 -55 -48 -23 -19 -23 -19 -23 3 0 14 7 25 20 28 22
6 27 23 8 23 -7 0 -3 6 8 13 63 36 83 53 108 94 33 55 47 50 17 -7 -11 -22
-21 -44 -21 -47 0 -11 56 57 87 105 15 23 35 42 44 42 10 0 23 14 31 30 7 17
23 33 36 37 12 3 27 13 31 22 5 9 23 24 40 34 31 18 31 18 31 -5 0 -16 -3 -19
-8 -10 -7 9 -18 4 -47 -23 -22 -19 -34 -35 -28 -35 6 0 16 7 23 15 7 8 25 15
40 15 16 0 31 6 34 13 3 6 4 -15 2 -48 -3 -39 -2 -53 4 -40 5 11 9 34 9 52 1
35 17 53 24 26 3 -15 6 -14 15 7 16 37 14 10 -4 -60 -24 -93 -11 -81 22 20 17
54 34 90 42 90 7 0 21 8 30 17 16 16 17 16 20 0 4 -20 11 -21 32 -6 13 9 12
10 -2 5 -11 -3 -18 0 -18 8 0 8 -6 17 -12 19 -7 3 1 6 19 6 17 1 39 4 49 8 11
4 15 3 10 -5 -7 -11 55 -10 105 3 19 5 26 3 26 -10 0 -9 -12 -18 -26 -21 -44
-10 -47 -12 -16 -13 17 0 48 3 70 8 22 5 69 12 105 16 l65 6 -25 -20 c-13 -10
-66 -40 -117 -66 -52 -26 -92 -50 -89 -52 2 -2 22 5 45 16 22 12 46 21 54 21
8 0 44 16 81 35 40 21 66 29 66 22 0 -7 5 -4 11 5 6 11 16 15 26 11 10 -4 14
-2 10 4 -3 5 11 17 31 27 21 9 31 11 22 3 -8 -7 -26 -25 -39 -40 -28 -31 -12
-38 17 -7 12 13 26 18 38 14 14 -4 15 -3 5 4 -16 12 3 27 21 16 6 -4 8 -3 5 3
-8 13 28 24 49 16 11 -4 12 -9 3 -19 -9 -11 -8 -14 2 -14 8 0 20 9 27 20 7 11
21 20 31 20 11 0 23 5 27 11 4 8 9 7 15 -2 6 -11 11 -11 21 -1z m-427 -10
c-26 -15 -95 -27 -95 -17 0 5 12 9 28 10 15 0 36 4 47 9 29 13 43 11 20 -2z
m-408 -70 c-3 -8 -6 -5 -6 6 -1 11 2 17 5 13 3 -3 4 -12 1 -19z m1108 12 c3
-5 -1 -10 -10 -10 -9 0 -13 5 -10 10 3 6 8 10 10 10 2 0 7 -4 10 -10z m-3275
-138 c0 -15 -2 -15 -10 -2 -13 20 -13 33 0 25 6 -3 10 -14 10 -23z m1626 -297
c-3 -8 -13 -15 -23 -14 -11 0 -13 3 -5 6 6 2 9 10 6 15 -4 7 -2 8 4 4 7 -4 12
0 13 11 0 11 3 13 6 5 3 -7 2 -19 -1 -27z m-116 -209 c-6 -20 -15 -36 -20 -36
-5 0 -1 18 7 40 20 49 30 45 13 -4z m27 2 c-3 -8 -6 -5 -6 6 -1 11 2 17 5 13
3 -3 4 -12 1 -19z m2330 -160 c-3 -8 -6 -5 -6 6 -1 11 2 17 5 13 3 -3 4 -12 1
-19z m25 -73 c-3 -5 -7 -4 -10 3 -2 7 -7 10 -11 8 -4 -3 -12 10 -19 27 l-12
32 29 -30 c16 -16 26 -34 23 -40z m-2539 16 c-16 -27 -33 -41 -33 -26 0 9 43
65 47 61 2 -2 -4 -17 -14 -35z m47 -41 c-20 -13 -33 -13 -25 0 3 6 14 10 23
10 15 0 15 -2 2 -10z m-2461 -44 c-2 -2 -20 -6 -39 -10 -25 -4 -31 -3 -20 4
14 9 69 15 59 6z m309 -39 c9 3 1 -8 -18 -25 -40 -36 -61 -42 -30 -10 11 12
20 29 21 37 0 10 3 11 5 4 3 -7 13 -9 22 -6z m4757 -217 c18 -8 17 -9 -7 -9
-16 -1 -28 4 -28 9 0 12 8 12 35 0z m-2948 -82 c-3 -8 -6 -5 -6 6 -1 11 2 17
5 13 3 -3 4 -12 1 -19z m-26 -61 c-13 -13 -15 1 -4 30 7 17 8 17 11 -1 2 -10
-1 -23 -7 -29z m1534 13 c3 -6 -1 -7 -9 -4 -18 7 -21 14 -7 14 6 0 13 -4 16
-10z m95 -46 c17 -52 7 -51 -11 1 -9 25 -13 42 -8 40 4 -3 13 -21 19 -41z
m276 10 c-10 -14 -20 -23 -23 -20 -3 3 2 17 11 32 10 14 20 23 23 20 3 -3 -2
-17 -11 -32z m1326 29 c-6 -2 -9 -10 -6 -15 4 -7 2 -8 -4 -4 -18 11 -14 26 6
25 10 0 12 -3 4 -6z m-637 -41 c-3 -3 0 -11 6 -18 6 -7 8 -18 4 -24 -9 -14
-35 -13 -36 3 0 6 -2 21 -4 31 -5 28 4 39 21 25 8 -6 12 -14 9 -17z m-987 -27
c-3 -3 -9 2 -12 12 -6 14 -5 15 5 6 7 -7 10 -15 7 -18z m-611 -31 c-3 -3 -12
-4 -19 -1 -8 3 -5 6 6 6 11 1 17 -2 13 -5z m8 -20 c63 -6 71 -14 14 -14 -63 0
-195 -18 -265 -35 -139 -36 -262 -126 -309 -226 -12 -27 -28 -56 -36 -66 -8
-9 -9 -14 -4 -11 7 4 9 -19 7 -65 -2 -41 3 -104 12 -146 9 -41 14 -77 11 -79
-3 -3 -8 9 -11 27 -4 17 -10 34 -15 37 -4 2 -6 11 -2 19 3 8 0 15 -6 15 -7 0
-9 9 -5 25 3 13 1 38 -4 55 -8 21 -8 39 -1 59 7 21 7 36 0 48 -6 10 -11 12
-11 5 0 -14 -45 -7 -68 11 -10 8 -10 13 0 25 11 13 10 14 -8 4 -24 -13 -35 -7
-27 14 6 17 -9 18 -25 2 -6 -6 -14 -9 -17 -6 -3 3 9 15 27 28 18 12 24 19 14
16 -26 -9 -56 2 -56 20 0 8 -8 14 -17 13 -11 0 -13 -3 -5 -6 13 -5 7 -23 -9
-23 -6 0 -9 15 -7 33 3 32 5 33 123 73 66 22 176 60 244 83 164 57 281 82 351
75 30 -3 77 -7 105 -10z m92 -10 c-3 -3 -12 -4 -19 -1 -8 3 -5 6 6 6 11 1 17
-2 13 -5z m-32 -43 c-2 -9 -4 -18 -5 -21 -1 -3 -2 -8 -1 -12 0 -5 -14 -8 -33
-8 -19 0 -37 -4 -40 -9 -3 -5 -25 -7 -48 -4 -29 4 -39 3 -34 -5 4 -7 -3 -11
-21 -11 -68 1 -109 -4 -122 -14 -14 -12 -18 -13 -62 -15 -16 -1 -30 -11 -37
-24 -6 -13 -11 -17 -11 -10 -1 10 -5 10 -23 0 -13 -7 -26 -17 -30 -23 -4 -5
-8 -8 -9 -5 0 3 -2 14 -4 25 -2 11 -9 21 -15 23 -18 6 55 51 118 73 65 23 264
57 333 56 38 0 46 -3 44 -16z m729 4 c-4 -9 -19 -15 -38 -15 -17 0 -42 -3 -56
-7 -14 -3 -22 -2 -18 2 7 7 88 32 110 34 4 1 5 -6 2 -14z m-147 -41 c-3 -3
-12 -4 -19 -1 -8 3 -5 6 6 6 11 1 17 -2 13 -5z m1523 -14 c0 -5 -4 -10 -9 -10
-6 0 -13 5 -16 10 -3 6 1 10 9 10 9 0 16 -4 16 -10z m11 -74 c3 -153 -11 -229
-63 -333 -58 -118 -171 -206 -328 -255 -105 -32 -259 -32 -345 2 -113 43 -192
109 -254 210 -24 41 -26 51 -7 44 8 -3 16 3 19 15 3 12 13 21 22 21 14 0 15 3
6 14 -9 10 -8 15 4 20 9 3 15 0 15 -10 0 -10 5 -14 15 -10 8 3 22 9 30 12 8 3
16 1 16 -5 4 -34 16 -51 36 -51 9 0 13 3 10 7 -4 3 -2 12 4 20 8 9 8 13 1 13
-6 0 -9 7 -5 16 5 13 17 15 59 12 29 -3 51 -1 48 3 -6 10 61 31 103 33 19 0
38 8 43 16 8 13 11 13 26 -2 10 -10 14 -23 10 -34 -6 -16 -8 -16 -16 -4 -8 12
-10 11 -11 -5 -1 -11 -2 -25 -2 -32 1 -17 -117 -41 -183 -37 -59 3 -66 -13 -8
-21 16 -2 31 -4 34 -5 3 0 -6 -7 -19 -14 -13 -7 -33 -11 -45 -9 -18 4 -19 3
-4 -6 11 -8 25 -8 44 -1 21 8 31 8 41 -3 28 -27 293 24 293 57 0 7 10 18 23
25 22 12 51 29 75 44 21 14 3 27 -24 17 l-25 -10 18 30 c10 17 27 33 38 36 23
6 32 44 10 44 -7 0 -16 7 -19 16 -4 12 -1 14 14 9 28 -9 57 20 40 40 -11 13
-6 15 34 15 25 0 46 5 46 10 0 6 -9 10 -20 10 -42 0 -17 17 57 40 l76 23 18
-22 c10 -12 15 -29 12 -37 -3 -8 0 -20 6 -27 7 -9 8 -24 1 -46 -7 -24 -6 -31
3 -28 16 5 22 140 7 167 -9 16 -8 18 5 14 10 -4 15 -20 16 -48z m-541 15 c33
-31 39 -58 15 -67 -8 -4 -15 -12 -15 -20 0 -15 -38 -44 -58 -44 -10 0 -10 5
-1 22 6 11 12 47 13 79 0 33 4 59 9 59 4 0 21 -13 37 -29z m-1633 4 c0 -14
-53 -32 -64 -21 -4 3 -13 1 -20 -6 -11 -9 -16 -9 -23 3 -11 17 -3 26 30 32 53
9 77 7 77 -8z m2013 8 c-14 -3 -29 -9 -34 -14 -6 -5 -19 -9 -30 -8 -17 0 -15
3 9 14 17 8 41 14 55 13 l25 -1 -25 -4z m-1218 -14 c-13 -5 -30 -16 -38 -24
-19 -19 -35 -20 -28 -1 6 17 42 35 69 35 18 0 17 -1 -3 -10z m-221 -75 c11
-24 19 -50 16 -56 -2 -7 -9 4 -15 25 -6 21 -23 55 -38 75 -21 28 -23 33 -6 18
12 -10 31 -38 43 -62z m224 36 c0 -1 15 -3 34 -6 19 -2 37 -7 40 -11 3 -3 -9
-3 -27 0 -18 4 -31 3 -28 -2 3 -4 29 -11 57 -14 32 -4 57 -13 65 -24 8 -10 48
-87 90 -170 42 -84 92 -179 113 -210 20 -32 43 -73 50 -90 7 -18 17 -33 21
-33 4 0 5 -11 3 -24 -3 -13 0 -26 5 -30 6 -4 8 3 4 16 -5 21 -4 22 11 9 9 -7
17 -19 17 -26 0 -7 21 -30 48 -51 107 -88 140 -159 111 -241 -8 -23 -21 -35
-55 -48 -24 -9 -90 -55 -147 -101 -56 -47 -108 -89 -115 -95 -7 -6 -32 -13
-55 -15 -36 -3 -45 0 -69 27 -36 39 -122 81 -212 103 -85 22 -200 26 -217 9
-23 -23 -52 -13 -97 33 -43 46 -44 48 -40 102 4 50 9 60 43 89 39 34 53 53 81
113 20 43 67 138 81 165 55 101 93 229 99 335 6 90 19 140 38 140 13 0 65 39
53 40 -4 0 -18 -7 -31 -16 -29 -19 -48 0 -20 20 14 11 49 15 49 6z m-1031 -44
c-2 -6 2 -20 10 -31 12 -16 18 -17 38 -8 23 10 25 9 26 -17 0 -16 8 -40 18
-55 9 -14 15 -27 13 -30 -3 -2 -22 0 -44 5 -22 5 -56 10 -76 10 -40 0 -79 33
-82 69 -1 11 -7 21 -14 21 -7 0 -13 5 -13 10 0 6 6 10 13 8 6 -1 24 6 39 16
16 10 35 15 44 12 12 -5 15 -2 10 10 -5 14 -4 15 8 5 8 -7 13 -18 10 -25z
m1270 -15 c-4 -17 -9 -30 -11 -27 -3 2 -2 19 2 36 9 41 17 33 9 -9z m266 19
c0 -12 7 -31 15 -44 16 -23 15 -24 -22 -29 -30 -4 -43 0 -62 19 -14 13 -21 27
-17 31 5 4 11 2 13 -4 3 -8 14 -1 30 17 29 35 43 38 43 10z m-1113 -24 c15
-12 37 -28 49 -34 35 -19 24 -55 -22 -69 -21 -6 -52 -12 -67 -12 -25 -1 -27 1
-17 19 6 11 12 43 13 70 1 28 5 50 9 50 3 0 19 -11 35 -24z m-187 -26 c0 -5
-4 -10 -10 -10 -5 0 -10 5 -10 10 0 6 5 10 10 10 6 0 10 -4 10 -10z m476 -40
c4 -25 10 -37 18 -33 6 4 5 -1 -3 -10 -15 -18 -26 -23 -16 -7 9 14 -9 12 -24
-2 -10 -11 -11 -9 -5 5 5 15 2 17 -20 13 -14 -3 -26 0 -26 5 0 5 7 9 15 9 8 0
15 5 15 10 0 6 -5 10 -11 10 -5 0 -7 5 -4 10 3 6 14 10 23 10 15 0 15 -2 2
-10 -11 -7 -11 -10 -2 -10 7 0 10 -5 6 -12 -5 -7 -3 -8 5 -3 7 4 11 18 8 31
-2 13 0 24 4 24 5 0 12 -18 15 -40z m-1225 -7 c42 -25 36 -33 -23 -34 -29 -1
-66 -4 -83 -8 -27 -6 -67 8 -85 30 -3 3 -12 8 -20 11 -28 10 74 27 129 22 30
-2 67 -12 82 -21z m2159 -13 c0 -5 -4 -10 -10 -10 -5 0 -10 5 -10 10 0 6 5 10
10 10 6 0 10 -4 10 -10z m-1923 -6 c-3 -3 -12 -4 -19 -1 -8 3 -5 6 6 6 11 1
17 -2 13 -5z m1799 -13 c1 -6 0 -7 -2 -2 -3 5 -13 7 -23 4 -10 -3 -22 0 -26 7
-4 7 2 10 21 7 15 -2 29 -9 30 -16z m-1909 -13 c-3 -8 -6 -5 -6 6 -1 11 2 17
5 13 3 -3 4 -12 1 -19z m1856 11 c12 -7 24 -15 27 -18 3 -4 16 -12 30 -19 14
-7 17 -10 8 -8 -12 4 -18 0 -18 -10 0 -11 -5 -14 -17 -9 -10 4 -29 9 -42 10
-31 4 -55 29 -48 49 7 19 30 20 60 5z m447 -8 c0 -12 -20 -25 -27 -18 -7 7 6
27 18 27 5 0 9 -4 9 -9z m-2366 -43 c8 -24 27 -83 42 -133 98 -333 325 -497
669 -483 89 4 128 11 203 36 51 18 113 43 138 57 25 14 48 25 53 25 17 0 6
-33 -19 -60 -15 -16 -25 -32 -22 -35 3 -3 0 -5 -7 -5 -9 0 -9 -5 0 -21 6 -12
7 -24 3 -28 -11 -8 -14 -41 -4 -41 4 0 20 -24 35 -52 15 -29 34 -61 42 -70 8
-9 12 -22 8 -28 -5 -9 -1 -10 16 -6 22 6 23 6 7 -7 -22 -17 -23 -28 -3 -21 8
4 15 1 15 -5 0 -6 7 -11 17 -11 13 0 11 -4 -7 -20 -13 -11 -30 -20 -38 -20
-12 0 -12 4 3 20 25 28 5 25 -25 -3 -31 -29 -60 -41 -60 -25 0 7 -6 3 -14 -8
-8 -10 -20 -19 -27 -19 -7 0 -24 -15 -36 -34 -13 -19 -23 -27 -23 -19 0 7 5
19 11 25 6 6 12 29 15 52 3 40 3 40 -21 29 -14 -6 -25 -15 -25 -20 0 -4 -10
-6 -22 -4 -13 2 -31 -3 -40 -12 -10 -8 -18 -11 -18 -6 0 5 -10 -2 -21 -16 -18
-21 -20 -22 -15 -5 5 19 5 19 -7 2 -31 -48 -38 -53 -27 -25 5 16 17 39 26 53
9 13 14 30 11 37 -3 8 -9 2 -16 -14 -6 -16 -13 -28 -17 -28 -3 0 -3 7 0 16 5
14 4 15 -9 4 -8 -7 -15 -9 -15 -4 0 4 -6 -1 -14 -11 -8 -11 -12 -25 -9 -32 3
-7 0 -13 -6 -13 -6 0 -11 12 -11 28 0 21 -2 24 -10 12 -8 -12 -10 -12 -11 5 0
13 -7 4 -20 -24 -11 -24 -22 -41 -26 -37 -3 3 0 17 7 31 16 30 11 38 -14 20
-12 -9 -18 -26 -18 -49 0 -22 -4 -33 -10 -30 -6 4 -8 29 -5 62 4 42 11 58 29
70 13 9 33 27 44 39 12 13 26 23 31 23 5 0 28 17 51 38 28 24 39 41 34 50 -7
10 -15 7 -38 -10 -45 -35 -54 -42 -69 -55 -7 -7 -17 -13 -22 -13 -4 0 -41 -32
-80 -70 -40 -39 -77 -70 -83 -70 -5 0 -15 -10 -21 -22 -7 -13 -28 -42 -46 -65
-22 -27 -33 -49 -29 -60 3 -10 2 -24 -3 -32 -12 -18 44 -155 59 -146 5 3 11
-2 14 -11 4 -10 2 -13 -7 -8 -6 4 -3 -3 8 -17 11 -13 22 -26 24 -29 2 -3 1 11
-3 30 -4 25 -3 31 4 20 8 -13 10 -13 10 2 0 9 -6 18 -12 21 -7 2 -10 8 -6 12
16 18 29 -9 23 -49 -4 -26 -3 -36 3 -27 11 15 27 -2 17 -19 -3 -5 1 -10 10
-10 12 0 15 6 10 20 -4 12 -2 20 5 20 8 0 10 -9 5 -27 -3 -16 -9 -46 -11 -68
-4 -32 -3 -36 6 -22 6 9 8 26 5 37 -5 16 -3 19 12 13 10 -4 21 -11 25 -17 5
-7 8 -4 8 7 0 9 -4 17 -9 17 -5 0 -11 9 -14 19 -3 13 1 21 14 24 11 3 19 14
19 26 0 26 8 27 26 4 13 -17 13 -17 14 0 0 17 20 25 20 8 0 -5 14 -8 30 -6 17
2 30 0 30 -5 0 -6 10 -10 23 -11 12 0 16 -3 9 -6 -9 -3 -3 -12 17 -24 35 -21
77 -25 83 -7 3 7 11 9 24 4 16 -7 16 -9 4 -15 -8 -3 -16 -12 -18 -19 -2 -10 7
-11 34 -6 33 6 37 5 32 -12 -4 -14 0 -20 13 -20 11 0 19 4 19 9 0 4 6 5 13 0
24 -15 57 -14 57 1 0 12 7 14 33 9 17 -3 37 -12 42 -18 13 -16 69 -30 60 -15
-10 16 6 12 27 -7 10 -9 18 -11 18 -5 0 6 7 12 16 14 13 3 13 6 -3 23 -10 11
-17 28 -15 39 3 11 0 16 -7 12 -6 -4 -11 -14 -11 -21 0 -17 -31 -35 -59 -35
-11 0 -30 13 -42 29 -20 28 -23 29 -45 15 -21 -14 -24 -14 -42 4 -11 11 -21
25 -24 32 -3 10 -9 10 -27 -1 -21 -13 -24 -12 -46 15 -12 16 -27 26 -32 23
-14 -9 -53 30 -53 53 0 21 24 27 35 10 3 -6 17 -7 31 -4 13 3 32 3 41 -1 10
-4 35 -9 55 -9 20 -1 46 -10 58 -21 12 -11 20 -13 20 -6 0 15 52 7 130 -20 59
-20 230 -40 230 -27 0 4 -12 8 -27 8 l-28 1 30 13 c23 10 26 14 13 19 -9 3
-29 4 -43 1 -21 -4 -28 0 -32 16 -4 15 -14 20 -39 20 -19 0 -34 5 -34 10 0 6
5 10 10 10 6 0 10 5 10 10 0 6 -7 10 -17 10 -14 0 -14 2 2 20 13 14 22 17 31
10 8 -8 13 -7 17 2 2 7 7 10 11 7 3 -3 -3 -15 -14 -27 -12 -12 -19 -23 -18
-23 16 -6 68 -4 68 2 0 5 -5 9 -11 9 -5 0 -7 5 -4 10 4 6 15 8 25 5 11 -3 20
0 23 10 5 12 12 13 32 5 20 -7 34 -6 57 6 22 12 28 12 23 2 -6 -10 -5 -11 5
-1 10 9 17 10 27 2 10 -9 13 -7 13 7 1 16 3 15 15 -6 l14 -25 1 23 c0 19 4 22
20 17 14 -5 20 -2 20 10 0 15 1 15 16 0 12 -11 20 -13 29 -5 17 14 45 2 38
-16 -3 -8 -11 -14 -17 -14 -7 0 -31 -9 -54 -20 -22 -11 -46 -20 -52 -20 -6 0
-8 -4 -5 -10 3 -5 0 -20 -7 -32 -7 -13 -11 -27 -10 -32 2 -5 -4 -6 -12 -3 -8
3 -17 3 -20 -1 -4 -3 -17 -6 -29 -7 -12 0 -23 -4 -24 -10 -2 -6 36 -9 101 -8
110 2 117 4 294 82 51 23 99 41 107 41 21 0 20 -88 -1 -118 -16 -23 -43 -29
-60 -12 -7 7 -16 -2 -27 -30 -17 -45 -18 -44 17 -29 20 9 29 9 41 -1 8 -7 12
-16 9 -21 -3 -5 2 -6 10 -3 11 4 16 0 16 -10 0 -9 -5 -16 -11 -16 -5 0 -7 -5
-3 -11 3 -6 2 -14 -4 -18 -6 -4 -9 -16 -6 -27 7 -28 51 -20 83 15 34 38 81
108 81 120 0 15 17 14 23 -1 3 -7 6 1 6 17 1 23 4 27 11 15 8 -13 10 -12 10 3
0 10 5 15 11 12 6 -4 13 1 15 12 3 10 15 23 27 29 12 5 21 16 19 23 -2 9 3 11
14 7 13 -5 15 -2 11 14 -3 11 -1 23 4 26 5 3 9 -1 9 -8 0 -7 5 -5 11 6 9 15
13 16 21 5 7 -11 9 -9 5 7 -3 17 0 20 25 16 37 -6 44 -18 13 -26 -25 -7 -25
-30 0 -40 9 -3 12 0 8 10 -3 7 -1 14 5 14 11 0 25 -27 31 -57 1 -5 5 -1 10 6
6 9 6 22 0 32 -6 12 -4 19 9 25 9 4 20 6 25 6 15 -4 6 18 -13 28 -11 6 -20 17
-20 25 0 8 -4 15 -9 15 -15 0 -20 -27 -8 -41 7 -7 3 -6 -8 2 -11 9 -26 14 -34
11 -12 -4 -12 -3 0 11 8 8 19 14 24 14 6 -1 9 11 7 26 -2 19 1 26 8 22 6 -3 8
-10 5 -15 -3 -4 2 -10 10 -14 8 -3 15 -12 15 -20 0 -17 38 -41 48 -31 4 4 -1
12 -11 19 -27 20 -20 28 9 10 25 -17 25 -17 19 8 -4 15 -2 29 4 32 6 4 11 16
11 27 0 10 9 28 19 38 11 11 17 21 15 24 -3 2 0 17 6 32 7 18 7 31 0 40 -5 6
-7 14 -4 18 7 7 -27 67 -38 67 -4 0 -5 6 -3 13 3 7 -10 21 -30 31 -19 11 -49
32 -66 47 -31 27 -49 30 -49 7 0 -6 3 -8 6 -5 4 3 15 -4 25 -17 22 -28 24 -40
7 -30 -10 6 -10 4 0 -7 19 -20 14 -34 -5 -16 -10 8 -22 16 -27 16 -5 0 -14 10
-20 23 -8 15 -21 23 -39 23 -34 1 -54 -9 -38 -19 6 -4 11 -2 11 5 0 9 3 9 14
0 7 -6 14 -23 14 -38 l0 -26 -33 34 c-18 19 -28 37 -23 40 4 3 0 13 -11 23
-17 16 -19 16 -25 0 -3 -9 -13 -14 -20 -11 -8 3 -17 1 -19 -6 -2 -7 -23 7 -50
33 -44 44 -45 47 -40 93 4 36 0 62 -18 107 -13 33 -28 60 -32 60 -5 0 -7 7 -4
14 4 10 1 13 -8 10 -9 -4 -17 4 -21 23 -4 15 -16 34 -26 41 -10 7 -18 21 -18
31 0 9 -6 23 -12 30 -7 7 12 1 42 -13 185 -86 432 -69 614 42 33 20 93 67 133
105 41 39 71 62 67 53 -5 -12 2 -9 20 8 14 15 26 32 27 39 0 7 5 1 10 -13 6
-14 8 -41 4 -60 -4 -24 -3 -31 4 -21 6 10 8 -5 6 -47 -1 -34 1 -108 5 -164 6
-69 5 -104 -2 -107 -6 -2 -6 -6 2 -11 7 -4 14 -33 16 -65 2 -31 7 -61 10 -66
3 -5 0 -9 -6 -9 -7 0 -10 -6 -7 -14 3 -8 1 -17 -6 -20 -7 -2 -4 -5 6 -5 9 -1
17 -6 17 -12 0 -5 -4 -8 -9 -5 -5 4 -7 -3 -4 -14 3 -11 0 -20 -6 -20 -5 0 -8
-7 -4 -15 5 -14 2 -14 -22 -3 -25 11 -25 13 -9 25 10 7 13 13 7 13 -6 0 -17
-7 -24 -16 -11 -14 -9 -19 11 -35 14 -10 31 -17 38 -14 15 6 16 -11 0 -21 -6
-4 -30 -7 -52 -7 l-41 1 40 -13 c22 -8 32 -14 21 -14 -14 -1 -17 -6 -13 -23 6
-22 6 -22 -9 -3 -13 17 -14 15 -9 -30 4 -46 4 -47 -5 -17 -12 37 -30 35 -22
-3 3 -20 1 -24 -12 -19 -14 5 -15 2 -7 -19 6 -14 8 -35 6 -46 -3 -12 -7 -30
-10 -42 -2 -12 -9 -27 -15 -35 -13 -15 -15 -87 -5 -134 4 -19 2 -36 -5 -45
-19 -23 -33 -18 -28 10 3 13 2 23 -1 21 -3 -2 -7 15 -8 39 -1 30 3 45 13 49 8
3 13 16 13 28 -1 18 -2 19 -6 5 -3 -10 -10 -16 -17 -14 -15 6 -21 -149 -6
-158 6 -4 7 -11 3 -18 -4 -6 -12 3 -19 24 -10 27 -13 30 -13 11 -1 -14 -5 -20
-12 -17 -12 8 -49 -32 -49 -54 0 -14 2 -14 10 -1 6 9 10 10 10 3 0 -6 -12 -25
-26 -42 -14 -17 -21 -31 -15 -31 6 0 11 4 11 10 0 5 10 15 23 21 18 9 20 9 10
-2 -17 -17 -16 -32 1 -26 8 3 18 -5 25 -19 7 -17 7 -24 0 -24 -7 0 -9 -10 -5
-27 l7 -28 -21 30 -20 30 5 -35 c4 -25 3 -29 -3 -15 -8 17 -12 10 -27 -40
l-18 -60 -14 30 -14 30 5 -30 c6 -38 -19 -78 -34 -55 -5 8 -10 22 -10 31 0 9
-7 22 -15 29 -12 10 -15 9 -15 -6 0 -16 -2 -16 -10 -4 -5 8 -5 17 0 20 10 6
-15 88 -31 105 -5 5 -9 15 -9 23 0 7 -11 30 -25 50 -14 20 -25 30 -25 21 0 -8
5 -20 11 -26 7 -7 8 -22 1 -46 -5 -19 -7 -39 -3 -44 16 -18 30 -63 21 -63 -6
0 -10 6 -10 13 0 7 -7 22 -16 33 -15 18 -15 18 -10 0 6 -16 4 -17 -9 -6 -8 7
-16 24 -16 39 -1 17 -3 20 -6 9 -2 -10 -10 -18 -16 -18 -7 -1 -6 -6 4 -13 18
-14 29 -41 34 -82 4 -27 3 -28 -10 -12 -10 14 -18 16 -31 9 -11 -6 -13 -11 -5
-16 6 -4 11 -2 11 4 0 6 5 8 11 5 6 -4 8 -13 5 -21 -3 -7 -1 -16 4 -19 4 -3
11 1 13 7 4 9 6 10 6 1 2 -22 -22 -26 -37 -7 -13 18 -14 18 -7 -6 4 -14 11
-29 16 -34 5 -6 9 -15 9 -20 -1 -6 -9 -1 -19 11 l-19 22 -5 -25 c-3 -18 -1
-24 9 -20 7 3 16 0 20 -6 4 -6 3 -9 -2 -6 -5 3 -18 2 -29 -3 -16 -6 -17 -8 -3
-8 11 -1 19 -15 26 -48 12 -53 8 -69 -7 -30 -5 14 -15 28 -21 32 -9 6 -9 9 0
15 6 4 -2 7 -18 6 -27 -1 -29 -3 -16 -17 8 -8 14 -22 14 -30 0 -8 5 -20 12
-27 8 -8 9 -12 1 -12 -6 0 -13 3 -15 8 -2 4 -16 18 -33 32 -16 14 -23 17 -16
8 7 -10 10 -18 6 -18 -4 0 -2 -7 5 -15 11 -13 10 -14 -6 -9 -18 7 -18 7 -1
-13 22 -25 22 -34 0 -27 -12 4 -9 -1 7 -15 20 -16 22 -23 13 -32 -10 -10 -16
-9 -31 4 -17 15 -18 15 -19 -3 -1 -11 4 -20 10 -20 7 0 13 -9 14 -20 2 -18 -8
-25 -29 -21 -5 0 -8 -5 -8 -11 0 -7 -7 -2 -16 10 -8 12 -20 20 -26 16 -6 -4
-6 -10 1 -17 17 -17 13 -33 -9 -34 -11 -1 -20 4 -20 11 0 7 -23 32 -52 56 -28
24 -46 46 -40 48 7 2 9 9 6 15 -3 7 15 -9 41 -35 25 -27 47 -48 49 -48 2 0 -2
15 -8 34 -6 22 -13 30 -18 23 -4 -7 -6 -3 -5 10 1 22 7 21 42 -6 11 -8 -1 5
-26 31 -25 25 -53 61 -62 81 -17 35 -37 57 -37 40 0 -4 9 -21 19 -37 11 -17
18 -33 16 -37 -3 -4 2 -12 10 -19 8 -7 15 -19 15 -28 0 -12 -4 -12 -21 4 -11
10 -18 26 -16 36 3 10 2 18 -3 18 -4 0 -10 10 -14 23 -3 12 -19 33 -36 45 -29
22 -42 18 -18 -6 15 -15 38 -82 27 -82 -4 0 -10 9 -14 19 -4 13 -13 18 -26 16
-11 -2 -17 0 -14 6 4 5 1 9 -4 9 -6 0 -18 15 -26 32 -8 18 -14 24 -12 13 3
-15 -1 -21 -14 -21 -11 0 -19 5 -19 10 0 5 -3 6 -6 3 -4 -3 -16 -1 -28 5 -17
9 -19 8 -8 -3 6 -7 12 -17 12 -21 0 -12 -24 -5 -37 12 -11 13 -12 12 -13 -7 0
-19 -3 -20 -25 -10 -16 8 -23 17 -19 27 3 8 2 11 -2 7 -4 -4 -13 -2 -19 3 -9
8 -12 4 -12 -16 0 -18 2 -22 8 -13 7 11 9 11 9 1 0 -22 -30 -26 -46 -6 -14 18
-15 17 -11 -9 5 -33 -8 -46 -16 -16 -3 12 -10 18 -16 14 -6 -3 -11 0 -12 7 0
7 -6 0 -14 -16 -12 -28 -13 -28 -19 -8 -5 14 -12 19 -23 15 -12 -5 -14 -1 -9
18 6 20 5 21 -4 6 -6 -9 -15 -15 -19 -12 -5 2 -12 -5 -15 -18 -7 -21 -7 -21
-16 -2 -5 11 -9 14 -9 7 -1 -9 -8 -11 -21 -7 -13 4 -20 2 -20 -6 0 -10 -3 -10
-12 -1 -8 8 -15 8 -24 1 -9 -7 -19 -7 -33 0 -16 9 -22 8 -30 -6 -6 -10 -11
-13 -11 -8 0 6 -5 3 -10 -5 -8 -12 -10 -12 -10 5 -1 20 -1 20 -12 1 -11 -19
-11 -19 -24 -1 -8 10 -14 13 -14 7 0 -7 -7 -12 -15 -12 -8 0 -15 5 -15 10 0 6
-4 10 -10 10 -5 0 -10 -6 -10 -14 0 -8 -7 -22 -16 -30 -8 -9 -12 -20 -9 -26 3
-5 2 -10 -4 -10 -5 0 -11 8 -13 18 -3 10 -10 -1 -18 -28 -7 -25 -22 -53 -33
-63 -19 -17 -20 -21 -8 -50 7 -18 15 -45 17 -62 11 -91 11 -116 3 -121 -5 -3
-9 3 -10 13 0 10 -3 13 -6 6 -8 -22 -19 -14 -21 14 -1 15 -6 29 -11 32 -5 4
-11 17 -14 31 -3 14 -3 2 -2 -27 3 -43 1 -51 -12 -46 -10 4 -13 14 -8 32 4 20
3 22 -5 11 -9 -13 -11 -13 -20 0 -5 8 -10 21 -10 28 0 6 -4 12 -9 12 -5 0 -8
-11 -7 -24 0 -13 5 -22 10 -18 5 3 6 -5 3 -19 -4 -13 -7 -32 -7 -42 0 -10 -4
-15 -10 -12 -6 3 -7 -1 -4 -9 3 -9 1 -16 -5 -16 -14 0 -31 42 -31 78 0 18 -3
23 -9 14 -17 -27 -41 33 -40 98 1 33 -1 63 -3 66 -8 8 -19 -111 -12 -129 3
-10 3 -17 0 -17 -4 0 -11 10 -16 23 -7 17 -9 18 -9 4 -1 -11 -7 -17 -18 -15
-12 2 -17 -3 -15 -14 2 -10 -2 -18 -8 -18 -15 0 -12 22 7 50 16 22 16 23 0 17
-55 -22 -54 -22 -34 0 9 11 17 24 17 30 0 6 12 20 26 31 23 16 24 20 10 25
-11 4 -20 -2 -31 -23 -8 -16 -20 -32 -26 -35 -6 -4 -1 11 10 33 23 45 24 83 3
75 -11 -5 -11 -7 -1 -14 14 -8 -7 -47 -49 -89 -26 -26 -23 -15 10 33 l19 27
-24 -9 -24 -9 14 40 c8 23 12 48 10 57 -2 9 -7 -2 -12 -25 -4 -22 -16 -51 -26
-65 -16 -20 -18 -20 -13 -4 4 11 12 26 18 34 9 11 8 13 -4 9 -8 -2 -19 -19
-24 -36 -5 -18 -13 -32 -17 -32 -13 0 -11 24 4 39 10 11 9 13 -3 9 -8 -3 -21
2 -29 10 -12 12 -12 15 0 23 22 14 33 11 19 -6 -17 -21 -3 -19 25 3 17 14 21
22 13 35 -5 10 -6 16 -1 15 4 -2 8 2 9 7 0 6 -9 9 -20 8 -12 -1 -16 0 -9 3 7
3 9 12 6 20 -3 8 1 22 8 31 10 12 10 15 2 9 -9 -5 -13 0 -13 14 0 19 -21 59
-45 86 -10 12 -42 7 -64 -10 -11 -8 -13 -8 -8 1 7 11 -2 127 -9 120 -5 -5 -18
-125 -17 -160 0 -17 -3 -24 -7 -16 -6 8 -11 6 -19 -9 -6 -12 -17 -19 -25 -16
-19 7 -50 -40 -43 -66 7 -28 -16 -44 -31 -20 -13 22 -7 46 14 54 9 3 12 11 9
16 -7 12 -48 -35 -52 -59 -2 -16 -30 -41 -46 -41 -6 0 -2 9 7 19 17 19 17 19
-3 14 -12 -3 -21 -1 -21 3 0 5 -15 26 -34 48 -40 44 -36 62 22 97 17 12 32 25
32 30 0 11 -50 -21 -70 -46 -11 -14 -14 -13 -26 2 -12 17 -13 16 -14 -5 0 -13
-4 -20 -10 -17 -12 8 -13 45 -1 45 5 0 1 20 -8 45 -18 52 -30 59 -23 15 2 -17
8 -30 13 -30 5 0 9 -7 9 -16 0 -8 -4 -12 -10 -9 -5 3 -10 0 -10 -7 0 -9 -3 -9
-10 2 -5 8 -10 10 -10 4 0 -6 7 -17 15 -24 8 -7 15 -21 15 -31 0 -10 5 -21 12
-25 7 -4 8 -3 4 4 -4 7 -3 12 3 12 22 0 19 -19 -10 -46 l-30 -28 -6 24 c-6 22
-7 23 -14 4 -6 -15 -8 -12 -10 16 -1 19 -2 41 -2 48 1 7 -1 11 -4 8 -6 -6 -43
32 -43 44 0 3 7 15 15 26 8 10 15 23 15 29 0 5 -7 -1 -16 -13 -9 -13 -22 -21
-29 -18 -9 3 -12 -5 -11 -26 0 -19 -5 -33 -14 -36 -12 -4 -13 -2 -3 9 8 10 9
27 4 51 -5 21 -6 39 -4 42 3 3 3 13 -1 22 -5 13 -9 14 -21 4 -9 -7 -15 -8 -15
-2 0 5 7 13 16 16 11 4 14 14 9 38 -14 70 -15 94 -5 108 9 11 13 12 17 3 2 -7
9 -13 14 -13 6 0 5 9 -1 21 -17 30 -4 36 19 8 11 -13 15 -25 10 -27 -5 -2 -9
-8 -9 -13 0 -5 9 -4 19 3 18 11 18 13 -10 40 -16 16 -28 32 -26 36 1 4 -8 17
-20 30 -14 13 -23 35 -24 55 0 30 -1 30 -10 9 -9 -24 8 -73 31 -87 5 -3 10
-11 10 -16 0 -6 -4 -7 -10 -4 -5 3 -10 -2 -10 -12 0 -10 -8 -27 -16 -38 -16
-20 -16 -20 -9 3 4 13 2 22 -5 22 -6 0 -10 14 -8 33 2 36 -8 60 -23 52 -5 -4
-7 13 -5 40 4 33 2 43 -7 38 -7 -4 1 10 16 30 l28 37 -27 -10 -27 -11 6 48 c5
36 4 44 -4 30 -6 -10 -13 -53 -16 -95 -3 -42 -10 -86 -16 -97 -10 -19 -10 -19
-18 0 -8 20 -8 20 -8 0 -1 -11 -12 -25 -25 -31 -20 -9 -23 -9 -18 8 2 10 8 18
12 18 13 0 23 42 20 88 -1 23 2 42 7 42 5 0 9 9 9 21 0 19 -2 18 -23 -7 -13
-16 -26 -37 -29 -46 -3 -10 -10 -18 -16 -18 -6 0 -3 11 6 25 46 71 47 78 6 35
-36 -37 -40 -40 -24 -13 10 17 31 47 47 66 21 26 28 47 30 86 1 28 -1 51 -4
51 -7 0 -39 -80 -39 -98 0 -7 -6 -12 -13 -12 -7 0 -18 -12 -25 -27 -10 -25
-11 -26 -5 -3 3 14 12 32 19 41 8 8 14 22 14 30 0 8 4 19 8 24 12 14 43 95 36
95 -3 0 -15 -21 -26 -47 -23 -51 -37 -44 -19 10 10 29 9 30 -4 13 -8 -11 -15
-32 -15 -47 0 -14 -7 -33 -17 -40 -15 -13 -15 -12 -5 8 8 14 9 24 2 28 -12 8
-4 47 21 97 26 51 24 60 -4 18 -32 -49 -44 -81 -41 -112 2 -15 -1 -30 -6 -33
-13 -8 -16 97 -3 122 12 24 8 53 -11 65 -7 4 -6 14 1 30 5 13 7 32 3 43 -7 19
-7 19 -18 0 -9 -17 -10 -14 -8 17 2 21 0 39 -3 40 -3 2 -15 19 -25 38 -19 33
-19 34 -1 20 17 -14 18 -14 6 9 -8 15 -11 45 -9 78 4 42 2 53 -9 49 -10 -4
-13 8 -13 48 0 33 -5 56 -12 58 -7 3 -13 27 -14 57 -2 37 -8 57 -21 67 -17 12
-16 13 11 14 24 0 27 2 16 15 -7 8 -10 25 -6 39 5 20 2 25 -16 28 -19 2 -23 9
-21 33 3 29 2 29 -9 7 -9 -18 -9 -28 0 -42 7 -12 8 -21 2 -25 -6 -3 -10 -15
-10 -26 0 -26 -10 -24 -48 10 -18 17 -32 40 -32 53 0 18 2 20 10 8 8 -12 10
-11 10 6 0 12 -7 24 -15 28 -11 4 -14 13 -9 31 5 20 2 25 -12 25 -14 0 -11 6
14 21 17 12 32 25 32 31 0 5 -5 6 -11 2 -7 -4 -10 -2 -8 5 3 7 8 12 12 12 4
-1 18 -1 32 -1 16 0 25 -6 25 -15 0 -19 7 -19 28 2 16 16 17 15 21 -2 2 -11
-6 -26 -17 -36 -12 -9 -18 -19 -15 -23 10 -10 25 -7 18 3 -6 11 1 16 39 25 26
6 27 6 12 -9 -16 -16 -21 -35 -11 -35 3 0 17 7 31 16 22 15 24 15 18 0 -7 -19
7 -21 24 -4 10 10 15 10 20 1 5 -8 13 -7 27 4 13 10 14 14 4 10 -9 -3 -22 -1
-30 4 -12 8 -11 12 4 23 21 16 19 49 -3 54 -8 1 -20 -7 -25 -20 -10 -23 -41
-40 -33 -18 2 6 8 10 13 8 14 -5 26 55 12 64 -15 9 1 15 73 27 97 15 97 15
114 -31z m206 2 c-10 -18 -9 -19 15 -10 33 13 38 13 29 -1 -4 -7 0 -9 14 -5
15 5 24 1 33 -15 10 -19 9 -21 -5 -16 -24 9 -19 -9 7 -28 12 -9 22 -26 22 -40
1 -26 -13 -33 -32 -14 -5 5 -32 12 -59 14 -42 3 -45 2 -24 -7 50 -21 222 -78
236 -78 8 0 14 -5 14 -10 0 -6 12 -10 28 -9 15 0 91 -3 170 -7 105 -5 142 -4
142 4 0 7 8 12 18 12 10 0 23 5 30 12 7 7 12 9 12 5 0 -4 9 -3 20 3 15 8 20 8
20 -1 0 -8 6 -7 18 4 9 8 37 23 62 33 25 10 48 22 51 27 4 5 12 6 19 2 9 -5
11 -4 6 3 -4 7 2 22 13 34 24 25 27 38 9 38 -9 0 -8 3 2 9 8 6 19 7 25 3 5 -3
4 1 -3 10 -10 13 -10 17 4 22 14 5 16 1 10 -26 -3 -17 -13 -39 -21 -48 -30
-33 -12 -66 20 -37 33 29 45 37 55 37 5 0 10 5 10 11 0 6 9 8 22 4 17 -6 20
-4 15 9 -4 10 -1 16 8 16 8 0 21 12 29 28 15 26 15 25 16 -39 0 -36 -7 -88
-15 -115 -18 -61 -18 -59 2 -43 10 8 2 -12 -18 -49 -53 -98 -146 -185 -254
-237 -107 -51 -156 -64 -278 -71 -176 -11 -324 41 -434 152 -43 44 -65 76 -73
104 -16 58 -31 90 -41 84 -4 -2 -13 13 -20 35 -9 32 -9 44 1 56 10 12 10 15
-3 15 -20 0 -34 70 -15 81 10 7 10 9 1 9 -22 0 -14 30 10 40 12 5 37 9 55 9
30 1 32 -1 22 -19z m913 13 c-7 -2 -19 -2 -25 0 -7 3 -2 5 12 5 14 0 19 -2 13
-5z m-463 -39 c0 -8 -4 -12 -10 -9 -5 3 -10 10 -10 16 0 5 5 9 10 9 6 0 10 -7
10 -16z m68 -8 c2 -10 -3 -16 -15 -16 -14 0 -15 2 -5 9 11 6 9 9 -7 14 -13 3
-21 -1 -24 -12 -3 -11 -5 -9 -6 6 -1 18 4 21 27 19 15 -2 28 -10 30 -20z m51
-33 c1 9 6 17 12 17 5 0 7 -5 3 -11 -4 -8 1 -9 17 -5 l24 7 -22 -19 c-21 -19
-22 -20 -3 -25 11 -3 21 1 24 9 8 21 26 17 19 -3 -8 -24 -39 -53 -47 -46 -3 4
-6 1 -6 -5 0 -6 -7 -9 -15 -6 -8 4 -15 2 -15 -4 0 -6 5 -12 11 -14 7 -2 -35
-3 -93 -2 -58 1 -116 5 -129 10 -13 4 -31 8 -39 8 -8 1 -19 11 -25 24 -5 12
-17 22 -25 22 -9 0 -21 5 -28 12 -23 23 -13 35 28 34 22 0 40 -3 40 -7 0 -4 9
-9 20 -12 11 -3 20 0 20 5 0 6 6 5 15 -2 12 -10 15 -9 16 6 0 16 1 17 7 3 6
-13 12 -14 32 -6 36 14 70 17 70 6 0 -5 9 -4 20 3 16 11 22 9 34 -7 9 -11 16
-26 16 -33 0 -7 5 -10 11 -6 8 4 8 9 0 17 -6 6 -11 20 -10 32 0 20 0 20 9 0 7
-17 9 -17 9 -2z m134 10 c-7 -2 -13 -11 -13 -19 0 -8 -7 -14 -15 -14 -12 0
-12 3 2 20 10 11 22 20 28 19 5 0 4 -3 -2 -6z m-1923 -21 c3 -2 -1 -7 -7 -9
-10 -4 -9 -8 1 -19 19 -18 24 -18 29 4 4 16 5 16 6 -1 1 -10 -9 -21 -24 -27
-14 -5 -25 -14 -25 -19 0 -11 27 -4 49 13 11 9 13 7 7 -12 -5 -16 -4 -22 5
-20 8 2 16 -14 21 -42 5 -25 18 -80 29 -122 10 -43 19 -91 19 -108 0 -17 5
-30 13 -30 7 -1 5 -6 -5 -14 -22 -16 -23 -36 -2 -36 8 0 12 -4 9 -10 -3 -5 1
-20 8 -32 13 -20 36 -114 83 -343 8 -38 19 -89 24 -113 6 -23 10 -56 10 -72 0
-26 -5 -31 -29 -36 -23 -5 -31 -13 -36 -36 -4 -16 -4 -32 -1 -35 3 -4 6 4 6
16 0 13 4 20 11 16 6 -4 8 -13 5 -21 -3 -8 1 -14 8 -14 24 0 26 -28 4 -55 -15
-20 -18 -29 -9 -38 8 -8 11 -5 11 11 0 12 4 22 10 22 6 0 6 -9 0 -24 -5 -13
-6 -27 -2 -32 4 -4 1 -4 -5 0 -8 5 -13 1 -14 -11 -1 -10 -5 -2 -10 17 -9 37
-4 70 11 70 5 0 7 7 3 17 -5 13 -8 12 -16 -8 l-9 -24 -8 25 c-41 130 -98 382
-205 900 -46 220 -53 268 -35 240 8 -12 10 -10 10 8 0 20 4 22 23 16 12 -3 24
-9 27 -12z m137 -27 c14 -15 72 -228 73 -267 0 -10 -7 -18 -15 -18 -9 0 -20
-10 -24 -22 -7 -18 -10 -19 -15 -8 -11 32 -35 164 -30 172 3 4 1 8 -3 8 -5 0
-10 15 -11 33 -1 19 -6 47 -11 64 -6 21 -5 35 2 42 14 14 15 14 34 -4z m2190
-27 c-3 -8 -6 -5 -6 6 -1 11 2 17 5 13 3 -3 4 -12 1 -19z m-2110 -123 c4 -40
-12 -13 -21 35 -6 31 -5 33 6 15 7 -11 14 -33 15 -50z m13 -62 c-10 -16 -11
-15 -6 7 3 14 6 34 7 45 1 13 3 11 6 -7 2 -15 -1 -35 -7 -45z m30 7 c0 -22 -3
-40 -8 -40 -4 0 -6 18 -4 40 2 22 6 40 8 40 2 0 4 -18 4 -40z m1970 -33 c0 -1
-24 -25 -52 -52 l-53 -50 50 53 c46 48 55 57 55 49z m-1855 -62 c-17 -15 -14
-54 4 -47 10 4 13 1 9 -9 -3 -8 -9 -25 -13 -39 -7 -24 -7 -24 9 -5 l15 20 2
-20 c1 -11 0 -24 -1 -30 -9 -35 -9 -85 -1 -85 5 0 12 -9 15 -20 3 -11 9 -30
12 -42 5 -17 3 -20 -11 -14 -12 4 -16 2 -12 -7 3 -7 -1 -21 -9 -32 -13 -18
-15 -18 -40 6 -24 22 -41 52 -42 73 0 5 -5 12 -11 15 -6 4 -12 16 -14 26 -1
11 -6 25 -10 31 -9 15 -5 64 5 64 4 0 4 10 0 23 -11 29 -7 70 6 75 6 2 8 10 5
18 -4 10 0 15 8 14 39 -6 50 0 43 23 -6 22 -6 21 18 -3 18 -18 21 -28 13 -35z
m1745 -39 c0 -2 -8 -10 -17 -17 -16 -13 -17 -12 -4 4 13 16 21 21 21 13z m-40
-31 c0 -6 -97 -55 -107 -55 -4 1 17 14 47 30 61 32 60 32 60 25z m-1659 -88
c-10 -9 -11 -8 -5 6 3 10 9 15 12 12 3 -3 0 -11 -7 -18z m1386 -13 c-3 -3 -12
-4 -19 -1 -8 3 -5 6 6 6 11 1 17 -2 13 -5z m-150 -10 c-3 -3 -12 -4 -19 -1 -8
3 -5 6 6 6 11 1 17 -2 13 -5z m60 0 c-3 -3 -12 -4 -19 -1 -8 3 -5 6 6 6 11 1
17 -2 13 -5z m-1428 -99 c2 -10 9 -25 17 -33 8 -7 14 -22 14 -32 0 -10 7 -20
15 -24 8 -3 15 -15 15 -26 0 -11 7 -20 15 -20 14 0 24 -24 28 -67 0 -13 4 -23
7 -23 11 0 10 -53 -1 -66 -9 -11 -8 -14 4 -14 18 0 34 -53 18 -58 -6 -2 -11
-8 -11 -14 0 -5 -7 -16 -15 -24 -20 -20 -20 -41 0 -24 8 6 19 9 26 5 8 -5 9 0
4 16 -6 20 -5 22 6 11 11 -10 11 -16 1 -32 -15 -24 -15 -33 -2 -25 6 4 10 -5
10 -19 0 -18 6 -26 18 -27 16 -1 16 -2 0 -6 -26 -6 -22 -23 5 -24 21 0 21 -1
2 -9 -18 -8 -18 -9 -2 -9 10 -1 15 -6 12 -11 -9 -14 14 -110 26 -110 5 0 4 -9
-3 -20 -19 -29 -27 -24 -23 13 l4 32 -14 -25 c-25 -44 -19 -67 26 -93 22 -14
36 -27 31 -31 -11 -7 -11 -24 1 -43 9 -15 -15 -17 -75 -7 -29 5 -36 10 -33 25
2 11 0 19 -4 19 -5 0 -12 15 -15 33 -4 17 -10 43 -13 57 -4 14 -7 35 -7 48 -1
12 -5 22 -11 22 -5 0 -5 4 1 8 14 8 26 134 13 126 -8 -4 -13 16 -11 37 1 4 -8
15 -19 25 -18 16 -19 16 -13 1 3 -9 2 -17 -4 -17 -6 0 -17 31 -26 69 -9 37
-31 133 -50 212 -19 79 -38 166 -41 192 l-7 48 39 -24 c21 -13 40 -32 42 -42z
m156 -96 c-4 -47 -11 -57 -26 -42 -14 14 -7 69 9 66 6 -2 12 2 12 7 0 6 2 10
4 10 3 0 3 -18 1 -41z m2680 31 c4 -6 -6 -10 -22 -10 -22 0 -25 2 -13 10 19
12 27 12 35 0z m70 -44 c33 -22 47 -38 39 -45 -2 -2 -10 4 -18 14 -7 10 -23
20 -35 22 -12 2 -34 10 -49 18 l-27 14 30 -1 c17 -1 44 -11 60 -22z m115 -51
c0 -2 -5 -7 -12 -11 -7 -4 -8 -3 -4 4 4 8 -3 16 -18 22 -14 5 -26 14 -26 20 0
6 14 2 30 -10 17 -12 30 -23 30 -25z m-903 21 c5 -5 3 -11 -4 -13 -10 -4 -10
-7 0 -17 6 -8 18 -11 24 -9 7 3 13 -2 13 -11 0 -10 6 -13 15 -10 18 7 20 -7 3
-24 -8 -8 -9 -12 -1 -12 6 0 13 5 15 11 2 6 18 13 36 15 23 3 31 0 26 -8 -5
-8 0 -9 15 -5 18 4 20 3 10 -9 -6 -8 -18 -14 -25 -14 -26 0 -14 -20 25 -39 35
-18 40 -19 60 -4 23 16 38 12 26 -6 -3 -6 -11 -9 -16 -6 -5 4 -10 1 -10 -4 -1
-6 -2 -15 -3 -20 0 -5 -5 -13 -10 -18 -5 -5 -6 -3 -2 5 4 6 3 12 -3 12 -5 0
-12 -6 -14 -12 -4 -9 -6 -8 -6 2 -1 12 -13 15 -48 15 -27 0 -54 -4 -60 -8 -9
-6 -11 -3 -7 7 3 9 11 16 17 16 6 0 8 3 5 6 -4 3 -16 0 -28 -6 -18 -10 -21 -9
-15 1 6 9 2 11 -16 6 -21 -5 -22 -4 -8 6 25 19 0 50 -33 42 -18 -5 -25 -2 -25
9 0 12 4 13 14 5 10 -9 13 -8 13 2 0 8 -25 32 -55 54 -30 22 -55 43 -55 48 0
11 116 4 127 -7z m738 -4 c-3 -3 -11 0 -18 7 -9 10 -8 11 6 5 10 -3 15 -9 12
-12z m350 -42 c10 -11 16 -20 13 -20 -3 0 -13 9 -23 20 -10 11 -16 20 -13 20
3 0 13 -9 23 -20z m459 -6 c5 -14 4 -15 -9 -4 -17 14 -19 20 -6 20 5 0 12 -7
15 -16z m-3163 -57 c-10 -9 -11 -8 -5 6 3 10 9 15 12 12 3 -3 0 -11 -7 -18z
m1843 -15 c-24 -6 -43 16 -24 28 11 7 19 5 28 -8 11 -14 10 -18 -4 -20z
m-1811 0 c-3 -12 -9 -22 -14 -22 -5 0 -3 11 3 25 13 30 20 28 11 -3z m1438 9
c-8 -5 -20 -7 -27 -4 -6 2 -24 -8 -38 -24 -21 -22 -25 -24 -20 -8 10 29 34 45
68 45 22 0 27 -3 17 -9z m-328 -18 c-6 -17 -5 -17 14 0 11 9 23 17 26 17 16 0
4 -17 -31 -45 -20 -16 -31 -21 -23 -12 18 22 7 34 -15 16 -16 -13 -16 -12 -6
8 10 18 18 25 39 32 1 1 0 -7 -4 -16z m342 -3 c-3 -5 -12 -10 -18 -10 -7 0 -6
4 3 10 19 12 23 12 15 0z m-1508 -22 c-3 -8 -6 -5 -6 6 -1 11 2 17 5 13 3 -3
4 -12 1 -19z m849 -23 c1 -13 -2 -27 -7 -30 -5 -3 -6 0 -3 8 4 11 -2 14 -20
12 -31 -4 -35 11 -6 20 11 3 20 11 20 17 0 21 13 -2 16 -27z m2298 9 c3 -8 2
-12 -4 -9 -6 3 -10 10 -10 16 0 14 7 11 14 -7z m-30 -12 c3 -9 2 -37 -3 -62
-9 -46 -11 -40 -16 43 -2 38 9 50 19 19z m-3133 -15 c-10 -9 -11 -8 -5 6 3 10
9 15 12 12 3 -3 0 -11 -7 -18z m1902 -11 c4 -10 1 -13 -8 -9 -8 3 -12 9 -9 14
7 12 11 11 17 -5z m-1826 -18 c-3 -8 -6 -5 -6 6 -1 11 2 17 5 13 3 -3 4 -12 1
-19z m1156 -18 c-3 -12 -8 -19 -11 -16 -5 6 5 36 12 36 2 0 2 -9 -1 -20z
m1857 -60 c0 -5 -2 -10 -4 -10 -3 0 -8 5 -11 10 -3 6 -1 10 4 10 6 0 11 -4 11
-10z m36 -62 c-9 -5 -16 -16 -16 -25 0 -9 -3 -14 -6 -10 -4 3 -3 14 2 24 4 10
9 25 9 33 6 53 7 54 17 21 8 -28 6 -36 -6 -43z m-3065 29 c-10 -9 -11 -8 -5 6
3 10 9 15 12 12 3 -3 0 -11 -7 -18z m3016 -19 c-3 -8 -6 -5 -6 6 -1 11 2 17 5
13 3 -3 4 -12 1 -19z m-1633 -10 c-8 -29 -11 -31 -23 -24 -6 4 -8 13 -5 21 4
8 10 12 15 9 5 -3 9 0 9 5 0 6 3 11 6 11 3 0 2 -10 -2 -22z m96 -25 c-9 -12
-71 -9 -81 4 -8 9 -4 14 15 19 14 3 26 10 26 15 0 6 10 0 23 -11 12 -12 20
-24 17 -27z m-769 -26 c-10 -9 -11 -8 -5 6 3 10 9 15 12 12 3 -3 0 -11 -7 -18z
m2369 13 c0 -5 -5 -10 -11 -10 -5 0 -7 5 -4 10 3 6 8 10 11 10 2 0 4 -4 4 -10z
m-3033 -37 c-3 -10 -5 -4 -5 12 0 17 2 24 5 18 2 -7 2 -21 0 -30z m87 -8 c-9
-14 -18 -25 -21 -25 -5 0 5 18 20 38 17 22 18 13 1 -13z m1850 9 c3 -8 2 -12
-4 -9 -6 3 -10 10 -10 16 0 14 7 11 14 -7z m-434 -34 c0 -5 -4 -10 -9 -10 -6
0 -13 5 -16 10 -3 6 1 10 9 10 9 0 16 -4 16 -10z m-2126 -63 c4 -17 3 -26 -3
-23 -11 7 -2 -34 11 -51 5 -7 7 -17 3 -23 -3 -5 1 -13 10 -16 12 -5 15 -14 10
-33 -4 -19 -3 -22 5 -11 7 12 10 7 11 -20 1 -19 0 -43 -1 -53 -1 -10 4 -25 11
-33 6 -8 9 -17 5 -21 -3 -3 -6 0 -7 8 0 8 -4 6 -9 -6 -8 -20 -9 -20 -9 0 -1
11 -15 75 -32 143 -18 73 -28 134 -24 149 7 30 10 28 19 -10z m784 -9 c-13
-40 -33 -64 -25 -30 6 28 3 28 -23 0 -11 -12 -20 -17 -20 -10 0 6 6 16 13 22
22 18 62 49 64 50 1 0 -3 -15 -9 -32z m2805 12 c3 -11 1 -23 -4 -26 -5 -3 -9
6 -9 20 0 31 6 34 13 6z m-97 -16 c-3 -8 1 -26 10 -40 10 -15 12 -24 5 -24
-16 0 -35 45 -28 64 4 9 9 16 13 16 3 0 3 -7 0 -16z m34 -9 c0 -8 -4 -15 -10
-15 -5 0 -10 7 -10 15 0 8 5 15 10 15 6 0 10 -7 10 -15z m-1775 -5 c4 -6 11
-8 16 -5 5 4 9 1 9 -5 0 -6 4 -8 10 -5 5 3 20 -1 32 -9 20 -14 20 -16 4 -16
-10 0 -33 7 -52 16 -35 17 -53 34 -35 34 5 0 13 -5 16 -10z m-1045 -4 c0 -3
-4 -8 -10 -11 -5 -3 -10 -1 -10 4 0 6 5 11 10 11 6 0 10 -2 10 -4z m110 -10
c0 -2 -7 -6 -15 -10 -8 -3 -15 -1 -15 4 0 6 7 10 15 10 8 0 15 -2 15 -4z
m-540 -16 c8 -5 12 -11 10 -14 -3 -2 -14 2 -24 10 -22 15 -10 19 14 4z m453
-44 c-3 -14 -11 -27 -19 -30 -12 -5 -12 -2 -3 17 11 20 11 21 -4 8 -22 -17
-22 -3 -1 20 21 23 33 17 27 -15z m93 -4 c-4 -3 -12 0 -19 8 -9 10 -9 11 1 6
7 -5 12 -1 13 11 1 17 2 17 6 0 3 -10 2 -21 -1 -25z m2438 -11 c9 -11 8 -13
-4 -9 -8 2 -16 18 -17 34 -1 18 0 22 4 9 3 -11 10 -26 17 -34z m-2493 16 c-10
-9 -11 -8 -5 6 3 10 9 15 12 12 3 -3 0 -11 -7 -18z m9 -37 c0 -11 -7 -20 -15
-20 -13 0 -14 4 -5 20 6 11 13 20 15 20 3 0 5 -9 5 -20z m40 -49 c-13 -32 -30
-41 -30 -16 0 8 5 26 12 40 17 38 34 15 18 -24z m2458 -20 c-3 -39 -4 -40 -16
-20 -10 15 -10 19 -1 14 12 -8 10 19 -6 60 -7 18 -7 19 9 4 12 -11 16 -28 14
-58z m-2422 -38 l-27 -38 3 41 c1 30 6 40 15 37 7 -3 13 2 13 12 0 9 -4 13
-10 10 -5 -3 -10 0 -10 8 0 27 14 26 28 -2 13 -27 12 -32 -12 -68z m-600 60
c19 3 34 2 34 -4 0 -5 6 -9 14 -9 7 0 19 -7 26 -15 16 -19 3 -19 -34 0 -34 18
-50 11 -36 -16 8 -14 17 -18 34 -13 13 3 27 1 30 -5 4 -6 -1 -11 -11 -12 -14
0 -13 -2 5 -9 18 -8 21 -15 16 -37 -4 -19 -3 -24 4 -15 14 20 21 -4 17 -56 -2
-23 0 -42 4 -42 4 0 8 -7 8 -15 0 -8 -6 -15 -14 -15 -18 0 -16 -7 7 -32 11
-12 20 -30 20 -41 0 -19 34 -70 41 -62 3 2 3 -14 1 -36 -2 -21 -8 -39 -12 -39
-5 0 -7 -11 -4 -25 2 -14 0 -25 -6 -25 -5 0 -10 5 -10 10 0 6 -9 10 -20 10
-11 0 -20 -7 -20 -15 0 -8 -4 -15 -10 -15 -5 0 -7 7 -4 15 4 8 1 15 -6 15 -6
0 -8 5 -5 10 3 6 1 10 -4 10 -6 0 -11 -12 -12 -27 -1 -21 -5 -15 -15 22 -31
117 -32 123 -21 134 8 8 6 19 -6 40 -9 15 -14 31 -10 35 3 3 1 6 -5 6 -7 0
-11 10 -11 23 1 16 2 18 6 5 2 -10 9 -18 14 -18 11 0 12 34 2 44 -8 7 -13 36
-14 84 -1 12 -5 22 -10 22 -4 0 -6 7 -3 15 4 8 1 15 -5 15 -6 0 -11 12 -11 28
0 15 -5 34 -10 42 -8 13 -10 12 -10 -3 0 -10 -4 -15 -10 -12 -5 3 -10 15 -10
26 0 17 3 18 21 8 12 -6 37 -9 55 -6z m3222 -13 c-7 -11 -15 -15 -17 -9 -2 6
3 15 10 20 20 12 21 11 7 -11z m-3381 -12 c-3 -8 -6 -5 -6 6 -1 11 2 17 5 13
3 -3 4 -12 1 -19z m666 -13 c-3 -9 -8 -14 -10 -11 -3 3 -2 9 2 15 9 16 15 13
8 -4z m2467 0 c0 -8 -2 -15 -4 -15 -2 0 -6 7 -10 15 -3 8 -1 15 4 15 6 0 10
-7 10 -15z m-3011 -57 c1 -5 -3 -8 -9 -8 -5 0 -10 12 -9 28 0 24 1 25 9 7 5
-11 9 -23 9 -27z m150 -3 c0 -5 -6 -1 -14 9 -8 11 -15 24 -15 30 0 5 7 1 15
-10 8 -10 14 -23 14 -29z m412 -2 c-9 -15 -10 -14 -7 7 8 44 8 45 13 28 2 -10
0 -25 -6 -35z m109 1 c0 -7 -5 -16 -10 -19 -6 -3 -8 -18 -5 -33 5 -27 5 -27
-5 -3 -6 13 -8 33 -4 44 4 14 3 17 -6 12 -8 -5 -11 -4 -7 2 9 14 37 12 37 -3z
m-660 -51 c0 -7 -4 -13 -10 -13 -5 0 -10 12 -10 28 0 21 2 24 10 12 5 -8 10
-21 10 -27z m-156 2 c-4 -8 -10 -12 -15 -9 -11 6 -2 24 11 24 5 0 7 -7 4 -15z
m1416 -24 c0 -11 -39 -59 -40 -49 0 14 23 58 32 58 4 0 8 -4 8 -9z m-1390 -36
c4 3 10 -6 12 -20 3 -14 1 -25 -4 -25 -12 0 0 -59 17 -83 13 -18 13 -18 18 0
4 16 6 4 12 -72 1 -11 4 -27 8 -35 3 -8 5 -26 5 -40 -1 -14 1 -38 5 -55 4 -20
2 -36 -8 -49 -19 -25 -23 -20 -35 45 -11 63 -16 88 -30 149 -6 25 -15 70 -20
100 -5 30 -12 69 -15 85 -5 23 -4 26 4 15 9 -13 11 -12 12 5 2 17 2 17 6 -3 2
-12 8 -20 13 -17z m1410 -26 c-7 -11 -6 -19 0 -22 6 -3 5 -4 -2 -3 -7 2 -21
-3 -30 -11 -31 -27 -42 -9 -14 24 14 17 26 39 26 49 1 18 1 18 15 0 10 -13 11
-24 5 -37z m-557 26 c-3 -9 -8 -14 -10 -11 -3 3 -2 9 2 15 9 16 15 13 8 -4z
m473 -40 c-4 -14 -11 -25 -16 -25 -9 0 -6 32 5 51 11 17 18 2 11 -26z m-446
15 c0 -5 -5 -10 -11 -10 -5 0 -7 5 -4 10 3 6 8 10 11 10 2 0 4 -4 4 -10z m136
-32 c5 -8 2 -9 -9 -5 -13 5 -17 1 -17 -18 0 -13 -5 -27 -12 -31 -7 -5 -9 -2
-5 9 4 11 2 14 -9 10 -7 -3 -14 -11 -14 -19 0 -8 -8 -14 -17 -14 -12 0 -6 11
22 40 42 43 50 47 61 28z m230 -7 c-11 -12 -13 -20 -6 -23 7 -2 2 -12 -12 -23
-17 -15 -19 -16 -9 -2 12 15 11 17 -3 17 -37 0 -5 49 33 50 11 0 10 -4 -3 -19z
m-931 -1 c-3 -5 -14 -10 -23 -9 -14 0 -13 2 3 9 27 11 27 11 20 0z m1698 -31
c-8 -29 -13 -23 -13 14 0 22 3 28 9 18 5 -7 6 -22 4 -32z m-593 20 c0 -7 -8
-18 -17 -26 -10 -8 -12 -12 -5 -8 22 11 12 -12 -12 -29 -24 -15 -24 -15 -16
15 10 34 27 59 41 59 5 0 9 -5 9 -11z m557 -11 c-3 -8 -6 -5 -6 6 -1 11 2 17
5 13 3 -3 4 -12 1 -19z m-937 -9 c0 -6 -4 -7 -10 -4 -5 3 -10 11 -10 16 0 6 5
7 10 4 6 -3 10 -11 10 -16z m324 -4 c-4 -8 -10 -15 -15 -15 -5 0 -9 7 -9 15 0
8 7 15 15 15 9 0 12 -6 9 -15z m583 -36 c-8 -5 -13 -19 -12 -34 2 -14 0 -25
-3 -25 -4 0 -8 -12 -9 -27 0 -15 -9 -32 -18 -39 -17 -13 -4 -30 15 -19 6 3 10
-1 10 -9 0 -32 -20 -25 -46 16 -17 26 -23 43 -15 46 6 2 11 11 11 21 0 9 16
32 35 51 19 19 35 42 36 50 1 10 3 8 6 -4 3 -11 -1 -23 -10 -27z m-917 21 c8
-5 11 -12 8 -16 -4 -3 -14 1 -23 10 -18 17 -9 21 15 6z m111 -23 c-10 -9 -11
-8 -5 6 3 10 9 15 12 12 3 -3 0 -11 -7 -18z m194 13 c3 -5 -1 -10 -10 -10 -9
0 -13 5 -10 10 3 6 8 10 10 10 2 0 7 -4 10 -10z m-140 -49 c-8 -14 -25 -14
-25 0 0 5 5 7 10 4 6 -3 10 -1 10 6 0 7 3 10 6 6 3 -3 3 -10 -1 -16z m1552 0
c6 -10 15 -35 19 -56 6 -36 6 -37 -15 -26 -24 13 -29 23 -6 15 11 -5 10 3 -5
35 -11 22 -20 43 -20 46 0 12 16 4 27 -14z m-1597 -21 c0 -5 -8 -10 -17 -10
-15 0 -16 2 -3 10 19 12 20 12 20 0z m215 0 c-3 -5 -11 -10 -16 -10 -6 0 -7 5
-4 10 3 6 11 10 16 10 6 0 7 -4 4 -10z m1435 -21 c0 -27 -17 -23 -22 5 -4 17
-1 23 9 19 7 -3 13 -14 13 -24z m-2723 -1 c-3 -8 -6 -5 -6 6 -1 11 2 17 5 13
3 -3 4 -12 1 -19z m1283 -12 c0 -3 -4 -8 -10 -11 -5 -3 -10 -1 -10 4 0 6 5 11
10 11 6 0 10 -2 10 -4z m965 -6 c3 -5 1 -10 -4 -10 -6 0 -11 5 -11 10 0 6 2
10 4 10 3 0 8 -4 11 -10z m516 -12 c17 -32 29 -88 18 -88 -5 0 -9 6 -9 13 0 9
-3 8 -9 -2 -11 -17 -20 -3 -31 45 -5 23 -4 32 3 27 6 -4 8 0 4 10 -9 25 10 20
24 -5z m97 -37 c4 -28 -13 -20 -21 9 -3 14 -1 20 6 17 7 -2 14 -14 15 -26z
m-2848 4 c-7 -9 -15 -13 -19 -10 -3 3 1 10 9 15 21 14 24 12 10 -5z m2257 -17
c-3 -7 -5 -2 -5 12 0 14 2 19 5 13 2 -7 2 -19 0 -25z m446 -27 c-10 -13 -24
20 -17 40 8 23 8 23 14 -6 3 -16 5 -32 3 -34z m-380 11 c-2 -6 1 -22 7 -36 6
-17 5 -26 -3 -30 -9 -3 -8 -7 3 -15 8 -5 11 -13 7 -17 -4 -4 -13 -2 -19 4 -14
14 -28 16 -28 3 0 -5 9 -13 21 -16 11 -4 18 -9 16 -12 -9 -9 -47 17 -47 32 0
8 -4 15 -10 15 -16 0 -12 -56 5 -70 18 -15 20 0 3 20 -11 12 -10 12 5 1 20
-15 20 -20 7 -41 -9 -13 -12 -13 -21 3 -12 21 -26 22 -44 3 -12 -12 -12 -16 0
-26 8 -7 15 -19 15 -26 0 -21 18 -17 42 11 20 23 38 25 38 5 0 -5 -7 -7 -15
-4 -13 5 -19 -5 -17 -27 1 -4 -6 -6 -16 -5 -12 1 -16 -7 -16 -30 0 -33 0 -33
-45 -7 -2 2 1 8 6 15 6 7 7 22 3 33 -6 17 -8 16 -14 -12 -10 -43 -26 -52 -26
-14 0 16 -3 37 -6 46 -4 10 -2 15 7 13 9 -2 13 4 11 17 -1 14 8 26 30 39 19
11 28 21 21 23 -15 5 -17 51 -3 73 15 24 34 18 48 -14 9 -22 15 -27 24 -18 9
9 9 21 1 47 -9 27 -9 35 0 32 7 -3 11 -9 10 -15z m-196 -14 c-3 -8 -6 -5 -6 6
-1 11 2 17 5 13 3 -3 4 -12 1 -19z m74 -5 c-12 -20 -14 -14 -5 12 4 9 9 14 11
11 3 -2 0 -13 -6 -23z m-381 -4 c0 -6 -4 -7 -10 -4 -5 3 -10 11 -10 16 0 6 5
7 10 4 6 -3 10 -11 10 -16z m987 -1 c-3 -8 -6 -5 -6 6 -1 11 2 17 5 13 3 -3 4
-12 1 -19z m-807 8 c0 -3 -4 -8 -10 -11 -5 -3 -10 -1 -10 4 0 6 5 11 10 11 6
0 10 -2 10 -4z m357 -18 c-3 -8 -6 -5 -6 6 -1 11 2 17 5 13 3 -3 4 -12 1 -19z
m-849 -30 c-33 -28 -42 -21 -17 13 16 22 24 27 30 18 5 -8 0 -20 -13 -31z
m-76 10 c-7 -7 -12 -8 -12 -2 0 14 12 26 19 19 2 -3 -1 -11 -7 -17z m476 -23
c0 -33 -15 -23 -20 15 -3 22 -1 27 8 20 6 -6 12 -21 12 -35z m718 -15 c-7 -30
-15 -49 -19 -44 -3 6 -1 26 5 45 6 19 13 40 15 48 2 8 5 12 7 10 3 -2 -1 -29
-8 -59z m87 40 c3 -11 1 -18 -4 -14 -5 3 -9 12 -9 20 0 20 7 17 13 -6z m-870
-22 c-7 -35 -43 -102 -43 -80 0 7 4 20 9 30 5 9 15 32 21 50 7 17 14 32 16 32
2 0 1 -15 -3 -32z m-301 -25 c-4 -19 -7 -23 -10 -10 -5 23 -22 22 -22 -2 0
-11 -4 -23 -10 -26 -19 -12 -10 29 11 52 27 28 38 22 31 -14z m640 2 c-2 -14
-9 -25 -14 -25 -5 0 -7 3 -5 8 2 4 7 15 10 25 9 25 15 21 9 -8z m197 -5 c5
-17 6 -28 2 -25 -5 2 -14 -2 -21 -10 -9 -11 -9 -15 -1 -15 7 0 9 -5 5 -12 -5
-8 -11 -6 -20 7 -11 14 -10 20 2 32 7 8 14 23 14 34 0 27 6 24 19 -11z m-681
8 c8 -8 8 -17 1 -30 -6 -11 -8 -32 -4 -46 6 -26 6 -26 -9 -7 -13 20 -19 95 -6
95 3 0 11 -5 18 -12z m195 -17 c9 -16 17 -44 16 -63 l0 -33 -16 35 c-8 19 -19
43 -24 52 -22 44 -1 52 24 9z m-443 -2 c-7 -11 -14 -18 -17 -15 -3 3 0 12 7
21 18 21 23 19 10 -6z m124 5 c3 -8 2 -12 -4 -9 -6 3 -10 10 -10 16 0 14 7 11
14 -7z m866 0 c0 -8 -4 -12 -10 -9 -5 3 -10 10 -10 16 0 5 5 9 10 9 6 0 10 -7
10 -16z m-561 -66 c11 -34 19 -64 16 -66 -6 -6 -55 98 -55 116 0 32 20 6 39
-50z m-96 32 c3 -11 1 -20 -4 -20 -5 0 -9 2 -9 4 0 2 -3 11 -6 20 -3 9 -2 16
4 16 5 0 12 -9 15 -20z m242 11 c3 -5 1 -12 -5 -16 -5 -3 -10 1 -10 9 0 18 6
21 15 7z m-455 -38 c0 -7 -4 -13 -10 -13 -5 0 -10 12 -10 28 0 21 2 24 10 12
5 -8 10 -21 10 -27z m167 0 c-3 -10 -5 -4 -5 12 0 17 2 24 5 18 2 -7 2 -21 0
-30z m340 -10 c-3 -10 -5 -4 -5 12 0 17 2 24 5 18 2 -7 2 -21 0 -30z m169 0
c-10 -10 -19 5 -10 18 6 11 8 11 12 0 2 -7 1 -15 -2 -18z m-616 -19 c0 -8 -4
-14 -10 -14 -5 0 -10 4 -10 9 0 5 -3 18 -7 28 -6 16 -5 16 10 4 9 -7 17 -20
17 -27z m740 1 c0 -8 -4 -15 -10 -15 -5 0 -10 7 -10 15 0 8 5 15 10 15 6 0 10
-7 10 -15z m-786 -3 c3 -5 -1 -9 -9 -9 -8 0 -15 4 -15 9 0 4 4 8 9 8 6 0 12
-4 15 -8z m756 -18 c0 -8 -5 -12 -10 -9 -6 4 -8 11 -5 16 9 14 15 11 15 -7z
m1013 2 c4 -10 1 -13 -8 -9 -8 3 -12 9 -9 14 7 12 11 11 17 -5z m-1189 -11
c-4 -8 -8 -15 -10 -15 -2 0 -4 7 -4 15 0 8 4 15 10 15 5 0 7 -7 4 -15z m1061
-15 c3 -5 2 -10 -4 -10 -5 0 -13 5 -16 10 -3 6 -2 10 4 10 5 0 13 -4 16 -10z
m-905 -32 c0 -6 -7 -4 -17 3 -15 13 -15 12 -4 -8 10 -19 9 -22 -4 -17 -15 6
-21 35 -8 47 8 8 33 -11 33 -25z m1010 22 c0 -5 -5 -10 -11 -10 -5 0 -7 5 -4
10 3 6 8 10 11 10 2 0 4 -4 4 -10z m155 -7 c19 -15 19 -15 -10 -8 -37 8 -57
25 -29 25 10 0 28 -8 39 -17z m-135 -23 c0 -5 4 -9 9 -7 5 1 9 -1 10 -5 1 -5
-1 -8 -4 -8 -3 0 -12 0 -20 0 -8 0 -15 7 -15 15 0 8 5 15 10 15 6 0 10 -4 10
-10z m205 0 c3 -5 -1 -10 -9 -10 -9 0 -16 -6 -16 -12 0 -10 -2 -10 -9 0 -9 14
-32 13 -43 -3 -4 -5 0 -13 9 -16 14 -5 13 -7 -5 -11 -16 -5 -22 -2 -22 10 0
24 12 39 35 45 34 8 54 7 60 -3z m-1315 -14 c0 -3 -4 -8 -10 -11 -5 -3 -10 -1
-10 4 0 6 5 11 10 11 6 0 10 -2 10 -4z m840 -30 c0 -3 -4 -8 -10 -11 -5 -3
-10 -1 -10 4 0 6 5 11 10 11 6 0 10 -2 10 -4z m100 -16 c0 -5 -4 -10 -10 -10
-5 0 -10 5 -10 10 0 6 5 10 10 10 6 0 10 -4 10 -10z m-10 -100 c8 -15 6 -17
-8 -13 -10 2 -19 13 -19 24 -2 22 12 17 27 -11z m-192 -26 c18 -25 32 -49 30
-55 -3 -9 -78 83 -78 96 0 15 19 -1 48 -41z m277 -4 c3 -5 1 -10 -4 -10 -6 0
-11 5 -11 10 0 6 2 10 4 10 3 0 8 -4 11 -10z m-316 -98 c88 -194 125 -322 92
-322 -4 0 -24 48 -45 108 -22 59 -52 136 -68 172 -27 58 -43 140 -29 140 3 0
26 -44 50 -98z m387 84 c8 -8 14 -18 14 -22 0 -5 -5 -3 -12 4 -19 19 -26 14
-24 -18 1 -18 -3 -30 -10 -30 -22 0 -25 17 -7 49 21 36 20 35 39 17z m-136
-26 c0 -5 -7 -10 -16 -10 -8 0 -12 5 -9 10 3 6 10 10 16 10 5 0 9 -4 9 -10z
m-1993 -106 c-3 -3 -12 -4 -19 -1 -8 3 -5 6 6 6 11 1 17 -2 13 -5z m1968 -3
c3 -5 1 -12 -5 -16 -5 -3 -10 1 -10 9 0 18 6 21 15 7z m185 -11 c0 -5 -4 -10
-10 -10 -5 0 -10 5 -10 10 0 6 5 10 10 10 6 0 10 -4 10 -10z m-2133 -47 c-3
-3 -13 1 -21 10 -8 8 -12 17 -9 20 3 3 12 -1 20 -9 9 -8 13 -18 10 -21z m1803
33 c0 -3 -4 -8 -10 -11 -5 -3 -10 -1 -10 4 0 6 5 11 10 11 6 0 10 -2 10 -4z
m170 -6 c0 -5 -7 -10 -16 -10 -8 0 -12 5 -9 10 3 6 10 10 16 10 5 0 9 -4 9
-10z m-2100 -10 c0 -5 -2 -10 -4 -10 -3 0 -8 5 -11 10 -3 6 -1 10 4 10 6 0 11
-4 11 -10z m2106 -32 c10 -12 13 -18 7 -14 -8 4 -13 2 -13 -5 0 -18 -10 -5
-15 20 -5 26 -3 26 21 -1z m-2160 3 c-4 -5 -1 -12 4 -14 6 -3 5 -4 -2 -3 -15
3 -23 26 -8 26 6 0 9 -4 6 -9z m-69 -53 c-3 -8 -6 -5 -6 6 -1 11 2 17 5 13 3
-3 4 -12 1 -19z m132 6 c2 -2 2 -7 -2 -10 -8 -9 -47 6 -47 17 0 9 37 3 49 -7z
m-169 -4 c0 -5 -5 -10 -11 -10 -5 0 -7 5 -4 10 3 6 8 10 11 10 2 0 4 -4 4 -10z
m245 -31 c11 -16 1 -19 -13 -3 -7 8 -8 14 -3 14 5 0 13 -5 16 -11z m195 -259
c0 -5 -2 -10 -4 -10 -3 0 -8 5 -11 10 -3 6 -1 10 4 10 6 0 11 -4 11 -10z m-30
-27 c0 -5 -5 -15 -10 -23 -8 -12 -10 -11 -10 8 0 12 5 22 10 22 6 0 10 -3 10
-7z m34 -18 c-4 -8 -8 -15 -10 -15 -2 0 -4 7 -4 15 0 8 4 15 10 15 5 0 7 -7 4
-15z m261 -125 c3 -5 -1 -10 -10 -10 -9 0 -13 5 -10 10 3 6 8 10 10 10 2 0 7
-4 10 -10z m130 -50 c3 -5 1 -10 -4 -10 -6 0 -11 5 -11 10 0 6 2 10 4 10 3 0
8 -4 11 -10z"/>
<path d="M3670 6090 c-9 -6 -10 -10 -3 -10 6 0 15 5 18 10 8 12 4 12 -15 0z"/>
<path d="M4248 6073 c7 -3 16 -2 19 1 4 3 -2 6 -13 5 -11 0 -14 -3 -6 -6z"/>
<path d="M3656 6061 c-4 -5 3 -7 14 -4 23 6 26 13 6 13 -8 0 -17 -4 -20 -9z"/>
<path d="M4188 6063 c7 -3 16 -2 19 1 4 3 -2 6 -13 5 -11 0 -14 -3 -6 -6z"/>
<path d="M3558 6053 c7 -3 16 -2 19 1 4 3 -2 6 -13 5 -11 0 -14 -3 -6 -6z"/>
<path d="M3670 5920 c-9 -6 -10 -10 -3 -10 6 0 15 5 18 10 8 12 4 12 -15 0z"/>
<path d="M3470 5869 c0 -5 5 -7 10 -4 6 3 10 8 10 11 0 2 -4 4 -10 4 -5 0 -10
-5 -10 -11z"/>
<path d="M3495 5834 c-16 -8 -59 -28 -95 -44 -36 -16 -51 -27 -35 -24 38 9
195 82 175 83 -8 0 -28 -7 -45 -15z"/>
<path d="M3161 5734 c0 -11 3 -14 6 -6 3 7 2 16 -1 19 -3 4 -6 -2 -5 -13z"/>
<path d="M3285 5570 c-20 -27 -55 -66 -78 -86 -23 -20 -33 -32 -22 -26 25 13
118 109 134 140 20 37 5 25 -34 -28z"/>
<path d="M3285 5494 c-21 -25 -48 -50 -61 -54 -21 -8 -34 -30 -19 -30 10 0
106 93 116 112 16 30 3 20 -36 -28z"/>
<path d="M3176 5403 c-4 -4 -26 -6 -49 -4 -23 1 -40 1 -37 -2 11 -11 80 -11
92 1 6 6 10 12 7 12 -3 0 -9 -3 -13 -7z"/>
<path d="M3098 5353 c7 -3 16 -2 19 1 4 3 -2 6 -13 5 -11 0 -14 -3 -6 -6z"/>
<path d="M2966 5324 c-5 -14 -4 -15 9 -4 17 14 19 20 6 20 -5 0 -12 -7 -15
-16z"/>
<path d="M2830 5265 c-7 -9 -8 -15 -2 -15 5 0 12 7 16 15 3 8 4 15 2 15 -2 0
-9 -7 -16 -15z"/>
<path d="M5120 5136 c0 -2 7 -9 15 -16 13 -11 14 -10 9 4 -5 14 -24 23 -24 12z"/>
<path d="M5120 5065 c-14 -16 -10 -18 14 -9 9 3 16 10 16 15 0 14 -16 11 -30
-6z"/>
<path d="M2625 5029 c-4 -6 -5 -12 -2 -15 2 -3 7 2 10 11 7 17 1 20 -8 4z"/>
<path d="M4807 5014 c3 -7 9 -14 14 -14 14 0 10 17 -5 23 -10 4 -13 1 -9 -9z"/>
<path d="M5260 4993 c0 -6 6 -18 13 -25 8 -7 12 -18 10 -24 -2 -7 4 -14 13
-18 24 -9 28 -1 10 21 -9 10 -22 27 -30 38 -9 11 -16 15 -16 8z"/>
<path d="M4451 4896 c2 -2 18 -6 34 -10 22 -5 26 -4 15 4 -14 9 -59 15 -49 6z"/>
<path d="M3773 4833 c9 -2 25 -2 35 0 9 3 1 5 -18 5 -19 0 -27 -2 -17 -5z"/>
<path d="M2465 4810 c-3 -5 -1 -10 4 -10 6 0 11 5 11 10 0 6 -2 10 -4 10 -3 0
-8 -4 -11 -10z"/>
<path d="M2680 4650 c0 -5 5 -10 11 -10 5 0 7 5 4 10 -3 6 -8 10 -11 10 -2 0
-4 -4 -4 -10z"/>
<path d="M2417 4573 c-7 -11 10 -40 18 -31 4 4 3 14 -3 24 -5 9 -12 12 -15 7z"/>
<path d="M2668 4559 c-16 -11 -28 -25 -28 -30 0 -17 15 -8 38 22 28 34 26 35
-10 8z"/>
<path d="M2345 4440 c3 -5 11 -10 16 -10 6 0 7 5 4 10 -3 6 -11 10 -16 10 -6
0 -7 -4 -4 -10z"/>
<path d="M2680 4430 c6 -11 12 -20 14 -20 2 0 2 9 -1 20 -3 11 -9 20 -15 20
-5 0 -4 -9 2 -20z"/>
<path d="M2708 4443 c7 -3 16 -2 19 1 4 3 -2 6 -13 5 -11 0 -14 -3 -6 -6z"/>
<path d="M2635 4429 c-11 -16 -1 -19 13 -3 7 8 8 14 3 14 -5 0 -13 -5 -16 -11z"/>
<path d="M2690 4375 c0 -8 4 -15 10 -15 5 0 7 7 4 15 -4 8 -8 15 -10 15 -2 0
-4 -7 -4 -15z"/>
<path d="M4911 4166 c2 -2 18 -6 34 -10 22 -5 26 -4 15 4 -14 9 -59 15 -49 6z"/>
<path d="M4702 4088 c-19 -19 -14 -25 16 -20 16 2 29 10 29 18 0 17 -9 18 -26
2 -11 -10 -13 -10 -7 0 9 15 4 16 -12 0z"/>
<path d="M2416 4035 c-9 -25 -7 -47 4 -40 6 4 8 10 5 15 -3 4 1 10 7 13 10 3
10 8 2 16 -9 10 -13 8 -18 -4z"/>
<path d="M2466 4025 c-13 -20 -14 -25 -2 -25 7 0 16 10 19 22 9 31 2 33 -17 3z"/>
<path d="M5610 3561 c0 -5 5 -13 10 -16 6 -3 10 -2 10 4 0 5 -4 13 -10 16 -5
3 -10 2 -10 -4z"/>
<path d="M4831 3496 c2 -2 15 -9 29 -16 23 -12 24 -12 11 3 -7 10 -20 17 -29
17 -8 0 -13 -2 -11 -4z"/>
<path d="M4904 3430 c0 -13 4 -16 10 -10 7 7 7 13 0 20 -6 6 -10 3 -10 -10z"/>
<path d="M5000 3420 c0 -5 5 -10 11 -10 5 0 7 5 4 10 -3 6 -8 10 -11 10 -2 0
-4 -4 -4 -10z"/>
<path d="M2631 3374 c0 -11 3 -14 6 -6 3 7 2 16 -1 19 -3 4 -6 -2 -5 -13z"/>
<path d="M5554 3375 c11 -8 25 -15 30 -15 6 0 2 7 -8 15 -11 8 -25 15 -30 15
-6 0 -2 -7 8 -15z"/>
<path d="M2577 3363 c-4 -3 -7 -11 -7 -17 0 -6 5 -5 12 2 6 6 9 14 7 17 -3 3
-9 2 -12 -2z"/>
<path d="M3650 3359 c0 -5 5 -7 10 -4 6 3 10 8 10 11 0 2 -4 4 -10 4 -5 0 -10
-5 -10 -11z"/>
<path d="M5020 3360 c0 -5 5 -10 11 -10 5 0 7 5 4 10 -3 6 -8 10 -11 10 -2 0
-4 -4 -4 -10z"/>
<path d="M2601 3334 c0 -11 3 -14 6 -6 3 7 2 16 -1 19 -3 4 -6 -2 -5 -13z"/>
<path d="M3450 3309 c0 -5 5 -7 10 -4 6 3 10 8 10 11 0 2 -4 4 -10 4 -5 0 -10
-5 -10 -11z"/>
<path d="M3730 3300 c-9 -6 -10 -10 -3 -10 6 0 15 5 18 10 8 12 4 12 -15 0z"/>
<path d="M3780 3300 c0 -5 5 -10 10 -10 6 0 10 5 10 10 0 6 -4 10 -10 10 -5 0
-10 -4 -10 -10z"/>
<path d="M3581 3274 c0 -11 3 -14 6 -6 3 7 2 16 -1 19 -3 4 -6 -2 -5 -13z"/>
<path d="M2680 3270 c-9 -6 -10 -10 -3 -10 6 0 15 5 18 10 8 12 4 12 -15 0z"/>
<path d="M2698 3128 c-6 -32 3 -36 23 -11 8 9 9 14 2 10 -7 -4 -13 0 -15 10
-3 13 -6 10 -10 -9z"/>
<path d="M4227 2943 c-4 -3 -7 -11 -7 -17 0 -6 5 -5 12 2 6 6 9 14 7 17 -3 3
-9 2 -12 -2z"/>
<path d="M2758 2917 c-3 -13 -1 -32 3 -43 5 -13 8 -7 8 24 1 46 -4 55 -11 19z"/>
<path d="M2850 2870 c0 -5 5 -10 11 -10 5 0 7 5 4 10 -3 6 -8 10 -11 10 -2 0
-4 -4 -4 -10z"/>
<path d="M4185 2860 c-3 -5 -1 -10 4 -10 6 0 11 5 11 10 0 6 -2 10 -4 10 -3 0
-8 -4 -11 -10z"/>
<path d="M5110 2850 c0 -5 5 -10 10 -10 6 0 10 5 10 10 0 6 -4 10 -10 10 -5 0
-10 -4 -10 -10z"/>
<path d="M2930 2805 c0 -11 -5 -27 -10 -35 -8 -12 -10 -10 -8 9 2 13 -3 26 -9
28 -7 3 -13 -2 -13 -10 0 -9 -6 -17 -12 -20 -9 -3 -7 -9 6 -20 33 -24 27 -54
-16 -82 -21 -14 -38 -30 -38 -35 0 -15 20 -12 20 3 0 6 16 20 34 29 34 16 34
16 39 -7 2 -16 -3 -31 -15 -42 -10 -9 -16 -23 -14 -30 7 -18 -4 -16 -26 4 -12
10 -18 12 -18 4 0 -7 -5 -9 -10 -6 -7 4 -8 -3 -4 -22 8 -34 14 -42 14 -20 0
22 18 31 35 17 15 -13 20 -4 16 29 -2 7 2 10 8 6 6 -3 21 1 33 9 12 9 17 16
10 16 -16 0 -16 37 1 44 10 5 10 7 0 12 -15 7 -17 34 -3 34 6 0 10 -4 10 -10
0 -5 4 -10 9 -10 6 0 9 8 9 18 0 9 3 26 8 37 8 19 7 19 -11 2 -14 -15 -20 -16
-26 -5 -5 7 -9 18 -9 23 0 6 5 3 10 -5 15 -24 11 2 -5 30 -13 22 -14 23 -15 5z"/>
<path d="M4512 2782 c2 -18 1 -32 -4 -32 -4 0 -8 -5 -8 -11 0 -6 8 -9 18 -7 9
2 16 11 14 20 -2 12 3 15 18 11 20 -5 20 -6 3 -26 -18 -20 -18 -20 15 -3 31
16 46 41 18 30 -7 -3 -28 7 -46 23 l-33 27 5 -32z"/>
<path d="M5086 2783 c9 -36 14 -42 14 -15 0 12 0 25 1 29 0 4 -5 9 -11 11 -7
3 -9 -5 -4 -25z"/>
<path d="M3357 2783 c4 -10 11 -21 17 -25 6 -4 4 -9 -7 -14 -29 -11 -19 -26
14 -20 30 4 53 16 32 16 -6 0 -13 9 -16 21 -3 12 -10 18 -16 14 -6 -3 -11 1
-11 9 0 9 -4 16 -10 16 -5 0 -6 -8 -3 -17z"/>
<path d="M4112 2740 c-11 -17 -10 -20 8 -20 21 0 25 7 12 27 -6 9 -11 7 -20
-7z"/>
<path d="M4330 2725 c0 -8 7 -15 15 -15 9 0 12 6 9 15 -4 8 -10 15 -15 15 -5
0 -9 -7 -9 -15z"/>
<path d="M5330 2731 c0 -5 5 -13 10 -16 6 -3 10 -2 10 4 0 5 -4 13 -10 16 -5
3 -10 2 -10 -4z"/>
<path d="M3725 2720 c-3 -6 1 -7 9 -4 18 7 21 14 7 14 -6 0 -13 -4 -16 -10z"/>
<path d="M5250 2720 c1 -3 8 -27 16 -55 l14 -50 -5 45 c-3 25 -10 49 -16 55
-5 5 -9 7 -9 5z"/>
<path d="M3754 2702 c4 -7 2 -12 -3 -12 -6 0 -11 -9 -11 -20 0 -15 6 -19 23
-17 13 1 21 -3 20 -10 -4 -16 52 -45 79 -41 12 2 24 10 26 18 3 8 1 12 -3 8
-9 -8 -26 8 -43 42 -7 14 -10 17 -8 8 6 -20 -18 -25 -29 -8 -4 6 -16 8 -27 4
-16 -5 -20 -3 -15 10 3 8 1 18 -5 22 -7 4 -8 3 -4 -4z"/>
<path d="M4100 2669 c0 -5 5 -7 10 -4 6 3 10 8 10 11 0 2 -4 4 -10 4 -5 0 -10
-5 -10 -11z"/>
<path d="M3064 2557 c-1 -38 0 -45 6 -27 11 33 12 80 3 80 -5 0 -9 -24 -9 -53z"/>
<path d="M3910 2580 c0 -5 7 -10 15 -10 8 0 15 5 15 10 0 6 -7 10 -15 10 -8 0
-15 -4 -15 -10z"/>
<path d="M3956 2575 c-3 -9 0 -15 9 -15 16 0 20 16 6 24 -5 3 -11 -1 -15 -9z"/>
<path d="M4851 2490 c1 -8 5 -26 9 -40 l8 -25 1 25 c0 14 -4 32 -9 40 -9 13
-10 13 -9 0z"/>
<path d="M4670 2480 c0 -5 5 -10 11 -10 5 0 7 5 4 10 -3 6 -8 10 -11 10 -2 0
-4 -4 -4 -10z"/>
<path d="M4779 2477 c7 -10 19 -17 25 -17 7 0 22 -17 34 -37 12 -21 22 -31 22
-23 0 24 -28 59 -63 77 -30 15 -31 15 -18 0z"/>
<path d="M3255 2470 c-3 -5 -2 -10 4 -10 5 0 13 5 16 10 3 6 2 10 -4 10 -5 0
-13 -4 -16 -10z"/>
<path d="M3217 2449 c6 -6 9 -18 6 -25 -8 -21 11 -17 24 6 11 16 10 18 -2 14
-8 -4 -15 -1 -15 5 0 6 -5 11 -12 11 -9 0 -9 -3 -1 -11z"/>
<path d="M4191 2437 c-13 -21 -12 -21 5 -5 10 10 16 20 13 22 -3 3 -11 -5 -18
-17z"/>
<path d="M4690 2430 c6 -11 13 -20 16 -20 2 0 0 9 -6 20 -6 11 -13 20 -16 20
-2 0 0 -9 6 -20z"/>
<path d="M4800 2431 c0 -5 5 -13 10 -16 6 -3 10 -2 10 4 0 5 -4 13 -10 16 -5
3 -10 2 -10 -4z"/>
<path d="M3893 2383 c-15 -5 -17 -23 -4 -23 5 0 11 7 15 15 3 8 4 15 3 14 -1
0 -8 -3 -14 -6z"/>
<path d="M3107 2363 c-4 -3 -7 -11 -7 -17 0 -6 5 -5 12 2 6 6 9 14 7 17 -3 3
-9 2 -12 -2z"/>
<path d="M3821 2283 c-7 -21 -15 -45 -18 -53 -5 -13 -4 -13 10 0 17 17 40 90
28 90 -4 0 -13 -17 -20 -37z"/>
<path d="M3741 2034 c0 -11 3 -14 6 -6 3 7 2 16 -1 19 -3 4 -6 -2 -5 -13z"/>
<path d="M3216 4079 c3 -6 0 -15 -7 -20 -10 -6 -8 -9 9 -9 12 0 22 2 22 4 0
14 -14 36 -22 36 -5 0 -6 -5 -2 -11z"/>
<path d="M3265 4069 c-15 -6 -11 -8 18 -8 20 -1 37 1 37 3 0 9 -37 12 -55 5z"/>
<path d="M3378 4073 c7 -3 16 -2 19 1 4 3 -2 6 -13 5 -11 0 -14 -3 -6 -6z"/>
<path d="M2050 3624 c0 -8 5 -12 10 -9 6 3 10 10 10 16 0 5 -4 9 -10 9 -5 0
-10 -7 -10 -16z"/>
<path d="M2080 3171 c0 -5 5 -13 10 -16 6 -3 10 -2 10 4 0 5 -4 13 -10 16 -5
3 -10 2 -10 -4z"/>
<path d="M2103 2960 c1 -11 8 -22 16 -25 19 -7 24 0 16 24 -8 27 -34 27 -32 1z"/>
<path d="M4181 3264 c0 -11 3 -14 6 -6 3 7 2 16 -1 19 -3 4 -6 -2 -5 -13z"/>
<path d="M2205 2460 c-7 -12 20 -60 34 -60 15 0 18 22 7 47 -12 24 -30 30 -41
13z"/>
<path d="M4355 7740 c-13 -6 -15 -9 -5 -9 8 0 22 4 30 9 18 12 2 12 -25 0z"/>
<path d="M4938 7473 c7 -3 16 -2 19 1 4 3 -2 6 -13 5 -11 0 -14 -3 -6 -6z"/>
<path d="M4808 7463 c7 -3 16 -2 19 1 4 3 -2 6 -13 5 -11 0 -14 -3 -6 -6z"/>
<path d="M4863 7446 c0 -11 4 -12 20 -3 15 9 21 9 24 0 3 -7 9 -13 14 -13 4 0
6 7 3 15 -8 19 -61 20 -61 1z"/>
<path d="M5033 7443 c9 -2 25 -2 35 0 9 3 1 5 -18 5 -19 0 -27 -2 -17 -5z"/>
<path d="M5119 7425 c42 -19 52 -19 27 0 -11 8 -29 15 -40 15 -16 -1 -12 -5
13 -15z"/>
<path d="M2310 7050 c-9 -6 -10 -10 -3 -10 6 0 15 5 18 10 8 12 4 12 -15 0z"/>
<path d="M5810 6780 c0 -5 5 -10 10 -10 6 0 10 5 10 10 0 6 -4 10 -10 10 -5 0
-10 -4 -10 -10z"/>
<path d="M538 6603 c7 -3 16 -2 19 1 4 3 -2 6 -13 5 -11 0 -14 -3 -6 -6z"/>
<path d="M60 6545 c-24 -13 -23 -14 18 -12 47 1 49 3 24 16 -12 6 -25 5 -42
-4z"/>
<path d="M150 6550 c20 -13 33 -13 25 0 -3 6 -14 10 -23 10 -15 0 -15 -2 -2
-10z"/>
<path d="M170 3970 c-20 -6 -21 -8 -5 -8 11 0 31 4 45 8 20 6 21 8 5 8 -11 0
-31 -4 -45 -8z"/>
<path d="M118 3953 c7 -3 16 -2 19 1 4 3 -2 6 -13 5 -11 0 -14 -3 -6 -6z"/>
<path d="M40 3943 c-8 -2 -21 -7 -29 -9 -8 -2 -12 -6 -10 -9 3 -2 27 2 54 10
30 8 40 13 25 13 -14 0 -32 -2 -40 -5z"/>
<path d="M2055 1870 c3 -5 8 -10 11 -10 2 0 4 5 4 10 0 6 -5 10 -11 10 -5 0
-7 -4 -4 -10z"/>
<path d="M1950 1845 c-10 -12 -10 -15 4 -15 9 0 16 7 16 15 0 8 -2 15 -4 15
-2 0 -9 -7 -16 -15z"/>
<path d="M1986 1824 c-11 -8 -16 -14 -10 -14 13 0 39 18 34 24 -3 2 -14 -2
-24 -10z"/>
<path d="M2108 1813 c6 -2 18 -2 25 0 6 3 1 5 -13 5 -14 0 -19 -2 -12 -5z"/>
<path d="M5737 1784 c3 -8 9 -14 14 -14 5 0 14 -11 21 -25 6 -13 15 -22 20
-19 12 8 -22 62 -43 67 -12 3 -16 0 -12 -9z"/>
<path d="M1960 1780 c-11 -7 -5 -8 20 -4 43 8 51 14 19 14 -13 0 -31 -5 -39
-10z"/>
<path d="M2111 1781 c-8 -5 -9 -11 -3 -15 5 -3 12 1 16 9 6 17 6 18 -13 6z"/>
<path d="M5666 1771 c-4 -5 -2 -12 3 -15 5 -4 12 -2 15 3 4 5 2 12 -3 15 -5 4
-12 2 -15 -3z"/>
<path d="M1910 1760 c0 -5 7 -7 15 -4 8 4 15 8 15 10 0 2 -7 4 -15 4 -8 0 -15
-4 -15 -10z"/>
<path d="M2076 1761 c-4 -5 -2 -13 4 -16 8 -5 7 -11 -1 -21 -6 -8 -9 -17 -5
-21 3 -3 6 -1 6 7 0 10 3 10 15 0 26 -22 32 -6 9 28 -12 18 -25 28 -28 23z"/>
<path d="M5810 1760 c0 -6 7 -10 15 -10 8 0 15 2 15 4 0 2 -7 6 -15 10 -8 3
-15 1 -15 -4z"/>
<path d="M2025 1730 c3 -5 12 -7 20 -3 21 7 19 13 -6 13 -11 0 -18 -4 -14 -10z"/>
<path d="M5686 1732 c-3 -6 3 -12 15 -15 12 -3 19 -1 16 6 -5 15 -24 20 -31 9z"/>
<path d="M6155 1693 c-18 -14 -18 -15 -2 -9 10 3 23 6 28 6 5 0 9 5 9 10 0 14
-12 12 -35 -7z"/>
<path d="M5490 1685 c-7 -9 -11 -17 -9 -20 3 -2 10 5 17 15 14 24 10 26 -8 5z"/>
<path d="M5660 1685 c0 -8 5 -15 10 -15 6 0 10 7 10 15 0 8 -4 15 -10 15 -5 0
-10 -7 -10 -15z"/>
<path d="M6247 1684 c3 -8 16 -14 29 -14 32 0 30 6 -5 18 -25 9 -29 8 -24 -4z"/>
<path d="M5540 1681 c0 -5 11 -8 25 -8 14 0 25 3 25 8 0 5 -11 9 -25 9 -14 0
-25 -4 -25 -9z"/>
<path d="M2328 1667 c7 -8 8 -18 4 -22 -4 -5 -1 -5 6 -1 17 10 15 23 -4 30
-13 5 -14 4 -6 -7z"/>
<path d="M5591 1659 c-13 -10 -19 -19 -14 -19 13 0 49 27 43 33 -3 3 -16 -3
-29 -14z"/>
<path d="M5780 1650 c0 -11 -4 -20 -10 -20 -5 0 -7 -7 -4 -15 4 -8 15 -15 26
-15 13 0 17 4 11 13 -4 6 -6 22 -4 35 1 12 -2 22 -8 22 -6 0 -11 -9 -11 -20z"/>
<path d="M6390 1655 c0 -8 4 -15 10 -15 5 0 7 7 4 15 -4 8 -8 15 -10 15 -2 0
-4 -7 -4 -15z"/>
<path d="M2187 1643 c-13 -12 -7 -43 7 -43 8 0 16 -6 19 -12 3 -7 4 -3 4 10
-1 12 -8 22 -15 22 -8 0 -12 6 -8 15 6 16 3 19 -7 8z"/>
<path d="M6490 1620 c0 -5 5 -10 10 -10 6 0 10 5 10 10 0 6 -4 10 -10 10 -5 0
-10 -4 -10 -10z"/>
<path d="M1838 1583 c7 -3 16 -2 19 1 4 3 -2 6 -13 5 -11 0 -14 -3 -6 -6z"/>
<path d="M5336 1563 c-6 -14 -5 -15 5 -6 7 7 10 15 7 18 -3 3 -9 -2 -12 -12z"/>
<path d="M5515 1540 c-3 -5 -1 -10 4 -10 6 0 11 5 11 10 0 6 -2 10 -4 10 -3 0
-8 -4 -11 -10z"/>
<path d="M1898 1468 c-13 -29 -14 -37 -4 -29 13 11 31 60 24 66 -2 2 -11 -15
-20 -37z"/>
<path d="M5648 1403 c13 -5 17 -24 5 -22 -21 3 -33 -3 -33 -17 0 -9 -14 -29
-31 -45 -37 -35 -33 -48 7 -23 20 14 29 15 32 6 5 -17 22 -15 22 3 0 8 -7 15
-15 15 -9 0 -12 6 -8 15 9 26 36 -20 27 -48 -6 -20 -5 -20 10 -8 9 8 16 21 14
30 -1 9 1 22 5 29 5 7 3 12 -3 12 -7 0 -9 7 -6 15 3 8 9 22 12 30 5 11 -1 15
-22 14 -16 0 -23 -3 -16 -6z"/>
<path d="M6207 1362 c-10 -10 -17 -22 -17 -27 0 -5 9 1 21 14 12 12 19 24 17
27 -3 2 -12 -4 -21 -14z"/>
<path d="M5321 1354 c0 -11 3 -14 6 -6 3 7 2 16 -1 19 -3 4 -6 -2 -5 -13z"/>
<path d="M2866 1348 c3 -5 10 -6 15 -3 13 9 11 12 -6 12 -8 0 -12 -4 -9 -9z"/>
<path d="M2905 1350 c3 -5 8 -10 11 -10 2 0 4 5 4 10 0 6 -5 10 -11 10 -5 0
-7 -4 -4 -10z"/>
<path d="M3131 1344 c0 -11 3 -14 6 -6 3 7 2 16 -1 19 -3 4 -6 -2 -5 -13z"/>
<path d="M3050 1340 c0 -5 5 -10 11 -10 5 0 7 5 4 10 -3 6 -8 10 -11 10 -2 0
-4 -4 -4 -10z"/>
<path d="M5730 1340 c0 -5 5 -10 11 -10 5 0 7 5 4 10 -3 6 -8 10 -11 10 -2 0
-4 -4 -4 -10z"/>
<path d="M5288 1305 c2 -20 0 -35 -6 -35 -6 0 -10 -16 -9 -35 1 -19 5 -35 8
-35 8 0 19 53 19 92 0 23 4 29 15 24 8 -3 15 -1 15 4 0 6 -4 10 -9 10 -5 0
-16 2 -23 5 -11 4 -13 -3 -10 -30z"/>
<path d="M2712 1296 c7 -8 15 -12 17 -11 5 6 -10 25 -20 25 -5 0 -4 -6 3 -14z"/>
<path d="M2890 1281 c0 -6 9 -15 21 -21 12 -7 18 -18 15 -26 -3 -8 -1 -14 3
-14 15 0 22 33 9 42 -34 23 -48 28 -48 19z"/>
<path d="M5370 1270 c0 -6 7 -10 15 -10 8 0 15 2 15 4 0 2 -7 6 -15 10 -8 3
-15 1 -15 -4z"/>
<path d="M5488 1273 c7 -3 16 -2 19 1 4 3 -2 6 -13 5 -11 0 -14 -3 -6 -6z"/>
<path d="M2243 1255 c-10 -10 -9 -15 5 -21 9 -4 22 -6 28 -6 6 1 10 -11 9 -28
-2 -29 -1 -29 16 -14 22 20 9 54 -21 54 -10 0 -20 6 -22 14 -2 12 -5 12 -15 1z"/>
<path d="M1650 1229 c0 -5 5 -7 10 -4 6 3 10 8 10 11 0 2 -4 4 -10 4 -5 0 -10
-5 -10 -11z"/>
<path d="M2980 1221 c0 -6 5 -11 11 -11 6 0 8 -9 4 -22 -7 -22 -6 -22 7 -4 14
18 16 18 58 -3 24 -11 46 -18 49 -15 8 7 -20 24 -41 24 -10 0 -18 4 -18 9 0 5
-8 11 -17 14 -10 2 -26 8 -35 12 -11 4 -18 3 -18 -4z"/>
<path d="M5650 1219 c0 -5 5 -7 10 -4 6 3 10 8 10 11 0 2 -4 4 -10 4 -5 0 -10
-5 -10 -11z"/>
<path d="M5710 1219 c0 -5 5 -7 10 -4 6 3 10 8 10 11 0 2 -4 4 -10 4 -5 0 -10
-5 -10 -11z"/>
<path d="M2326 1191 c-4 -6 -4 -15 -1 -21 3 -5 -2 -10 -12 -10 -15 0 -15 -2
-3 -9 18 -12 48 25 32 41 -6 6 -12 6 -16 -1z"/>
<path d="M3330 1190 c0 -5 4 -10 9 -10 6 0 13 5 16 10 3 6 -1 10 -9 10 -9 0
-16 -4 -16 -10z"/>
<path d="M5732 1172 c-16 -34 -10 -37 16 -8 14 17 17 26 8 29 -6 3 -17 -7 -24
-21z"/>
<path d="M2358 1152 c-4 -15 -1 -18 14 -14 19 5 20 23 1 29 -6 2 -13 -5 -15
-15z"/>
<path d="M5251 1134 c-15 -33 -10 -39 11 -15 9 10 12 24 9 30 -5 7 -12 2 -20
-15z"/>
<path d="M2413 1123 c-15 -6 -17 -33 -3 -33 6 0 10 7 10 15 0 17 16 20 25 5 3
-5 1 -10 -4 -10 -6 0 -11 -9 -11 -19 0 -11 6 -18 15 -17 25 4 29 15 15 41 -13
25 -23 28 -47 18z"/>
<path d="M3410 1120 c-8 -5 -10 -10 -5 -10 6 0 17 5 25 10 8 5 11 10 5 10 -5
0 -17 -5 -25 -10z"/>
<path d="M5460 1095 c7 -9 15 -13 17 -11 7 7 -7 26 -19 26 -6 0 -6 -6 2 -15z"/>
<path d="M5206 1083 c-6 -14 -5 -15 5 -6 7 7 10 15 7 18 -3 3 -9 -2 -12 -12z"/>
<path d="M2487 1073 c-18 -5 -19 -28 -1 -28 5 0 21 -13 36 -28 15 -15 33 -27
40 -26 7 0 3 5 -10 12 -16 7 -22 17 -19 29 4 13 0 18 -11 16 -11 -2 -16 3 -16
15 1 9 1 16 0 16 0 -1 -9 -3 -19 -6z"/>
<path d="M5187 1018 c-10 -11 -17 -22 -15 -24 3 -2 15 7 28 21 13 14 19 25 14
24 -5 0 -17 -10 -27 -21z"/>
<path d="M5025 1020 c3 -5 8 -10 11 -10 2 0 4 5 4 10 0 6 -5 10 -11 10 -5 0
-7 -4 -4 -10z"/>
<path d="M915 1000 c-3 -5 -1 -10 4 -10 6 0 11 5 11 10 0 6 -2 10 -4 10 -3 0
-8 -4 -11 -10z"/>
<path d="M5215 1000 c-3 -5 -1 -10 4 -10 6 0 11 5 11 10 0 6 -2 10 -4 10 -3 0
-8 -4 -11 -10z"/>
<path d="M2582 983 c-7 -2 -17 -14 -23 -25 -10 -19 -10 -19 15 -3 14 10 26 21
26 26 0 5 -1 9 -2 8 -2 0 -9 -3 -16 -6z"/>
<path d="M4940 970 c0 -5 5 -10 11 -10 5 0 7 5 4 10 -3 6 -8 10 -11 10 -2 0
-4 -4 -4 -10z"/>
<path d="M5228 953 c7 -3 16 -2 19 1 4 3 -2 6 -13 5 -11 0 -14 -3 -6 -6z"/>
<path d="M5105 940 c-3 -5 1 -10 9 -10 9 0 16 5 16 10 0 6 -4 10 -9 10 -6 0
-13 -4 -16 -10z"/>
<path d="M5170 941 c0 -5 5 -13 10 -16 6 -3 10 -2 10 4 0 5 -4 13 -10 16 -5 3
-10 2 -10 -4z"/>
<path d="M4906 925 c-3 -8 -2 -15 3 -15 5 0 14 7 21 15 10 12 10 15 -3 15 -8
0 -17 -7 -21 -15z"/>
<path d="M2690 895 c-8 -9 -8 -15 -2 -15 12 0 26 19 19 26 -2 2 -10 -2 -17
-11z"/>
<path d="M4855 890 c-3 -6 1 -7 9 -4 18 7 21 14 7 14 -6 0 -13 -4 -16 -10z"/>
<path d="M5066 883 c-6 -14 -5 -15 5 -6 7 7 10 15 7 18 -3 3 -9 -2 -12 -12z"/>
<path d="M3800 819 c0 -5 5 -7 10 -4 6 3 10 8 10 11 0 2 -4 4 -10 4 -5 0 -10
-5 -10 -11z"/>
<path d="M4116 805 c4 -8 8 -15 10 -15 2 0 4 7 4 15 0 8 -4 15 -10 15 -5 0 -7
-7 -4 -15z"/>
<path d="M4430 810 c0 -6 6 -10 14 -10 8 0 21 -3 30 -6 11 -4 16 -1 15 12 0
11 -3 14 -5 7 -4 -8 -13 -9 -30 -3 -15 6 -24 6 -24 0z"/>
<path d="M4797 809 c7 -7 15 -10 18 -7 3 3 -2 9 -12 12 -14 6 -15 5 -6 -5z"/>
<path d="M4967 806 c-15 -7 -24 -16 -20 -21 5 -4 -1 -5 -12 -1 -15 5 -17 4 -8
-5 8 -8 19 -7 42 7 17 10 31 22 31 26 0 4 -1 8 -2 7 -2 0 -15 -6 -31 -13z"/>
<path d="M3881 794 c0 -11 3 -14 6 -6 3 7 2 16 -1 19 -3 4 -6 -2 -5 -13z"/>
<path d="M4506 799 c3 -5 12 -9 21 -9 19 0 9 13 -12 16 -8 1 -13 -2 -9 -7z"/>
<path d="M4671 793 c-7 -8 -11 -16 -8 -19 2 -2 10 2 17 11 17 20 9 27 -9 8z"/>
<path d="M4070 790 c0 -6 7 -10 15 -10 8 0 15 2 15 4 0 2 -7 6 -15 10 -8 3
-15 1 -15 -4z"/>
<path d="M4712 770 c0 -14 2 -19 5 -12 2 6 2 18 0 25 -3 6 -5 1 -5 -13z"/>
<path d="M4210 755 c0 -8 2 -15 4 -15 2 0 6 7 10 15 3 8 1 15 -4 15 -6 0 -10
-7 -10 -15z"/>
<path d="M4873 756 c-9 -11 -8 -15 8 -19 14 -4 19 0 19 14 0 22 -10 24 -27 5z"/>
<path d="M3830 750 c0 -5 5 -10 11 -10 5 0 7 5 4 10 -3 6 -8 10 -11 10 -2 0
-4 -4 -4 -10z"/>
<path d="M4154 745 c3 -9 0 -15 -9 -15 -8 0 -15 -5 -15 -11 0 -6 -7 -8 -16 -5
-14 6 -15 4 -4 -9 12 -15 14 -15 22 -1 5 9 16 16 23 16 8 0 15 9 15 20 0 11
-5 20 -11 20 -6 0 -9 -7 -5 -15z"/>
<path d="M4613 753 c-19 -7 -16 -19 6 -19 11 0 17 5 14 13 -3 7 -6 13 -7 12 0
0 -7 -3 -13 -6z"/>
<path d="M4648 748 c5 -5 16 -8 23 -6 8 3 3 7 -10 11 -17 4 -21 3 -13 -5z"/>
<path d="M4740 744 c0 -17 10 -17 33 0 16 12 15 14 -8 14 -15 0 -25 -6 -25
-14z"/>
<path d="M4330 739 c0 -13 28 -18 33 -6 3 7 -3 13 -14 13 -11 0 -19 -3 -19 -7z"/>
<path d="M4185 730 c3 -5 8 -10 11 -10 2 0 4 5 4 10 0 6 -5 10 -11 10 -5 0 -7
-4 -4 -10z"/>
<path d="M4568 733 c7 -3 16 -2 19 1 4 3 -2 6 -13 5 -11 0 -14 -3 -6 -6z"/>
<path d="M4240 720 c19 -13 30 -13 30 0 0 6 -10 10 -22 10 -19 0 -20 -2 -8
-10z"/>
<path d="M4670 719 c0 -5 5 -7 10 -4 6 3 10 8 10 11 0 2 -4 4 -10 4 -5 0 -10
-5 -10 -11z"/>
<path d="M4703 710 c-1 -17 1 -18 17 -8 14 9 16 14 7 20 -18 12 -23 10 -24
-12z"/>
<path d="M4396 694 c-9 -23 -2 -28 13 -10 7 8 8 17 3 20 -6 3 -13 -1 -16 -10z"/>
<path d="M4540 699 c0 -5 5 -7 10 -4 6 3 10 8 10 11 0 2 -4 4 -10 4 -5 0 -10
-5 -10 -11z"/>
<path d="M4825 700 c-3 -5 -1 -10 4 -10 6 0 11 5 11 10 0 6 -2 10 -4 10 -3 0
-8 -4 -11 -10z"/>
<path d="M5266 698 c3 -4 9 -8 15 -8 5 0 9 4 9 8 0 5 -7 9 -15 9 -8 0 -12 -4
-9 -9z"/>
<path d="M4530 672 c0 -4 14 -8 31 -8 22 -1 27 1 18 7 -17 11 -49 12 -49 1z"/>
<path d="M4600 670 c0 -5 5 -10 11 -10 5 0 7 5 4 10 -3 6 -8 10 -11 10 -2 0
-4 -4 -4 -10z"/>
<path d="M4730 668 c0 -11 22 -10 39 1 10 7 7 9 -12 8 -15 -1 -27 -5 -27 -9z"/>
<path d="M4040 649 c0 -5 5 -7 10 -4 6 3 10 8 10 11 0 2 -4 4 -10 4 -5 0 -10
-5 -10 -11z"/>
<path d="M4185 650 c3 -5 8 -10 11 -10 2 0 4 5 4 10 0 6 -5 10 -11 10 -5 0 -7
-4 -4 -10z"/>
<path d="M4238 653 c7 -3 16 -2 19 1 4 3 -2 6 -13 5 -11 0 -14 -3 -6 -6z"/>
<path d="M4670 650 l-25 -8 25 -1 c14 0 32 4 40 9 13 9 13 10 0 9 -8 -1 -26
-5 -40 -9z"/>
<path d="M4443 636 c-13 -7 -20 -16 -16 -19 11 -12 22 -8 33 13 6 11 9 20 8
19 -2 -1 -13 -7 -25 -13z"/>
<path d="M4610 640 c0 -5 4 -10 9 -10 6 0 13 5 16 10 3 6 -1 10 -9 10 -9 0
-16 -4 -16 -10z"/>
<path d="M4295 620 c-19 -8 -19 -9 3 -9 12 -1 22 4 22 9 0 6 -1 10 -2 9 -2 0
-12 -4 -23 -9z"/>
<path d="M4350 620 c0 -5 7 -10 15 -10 8 0 15 5 15 10 0 6 -7 10 -15 10 -8 0
-15 -4 -15 -10z"/>
<path d="M4395 620 c3 -5 8 -10 11 -10 2 0 4 5 4 10 0 6 -5 10 -11 10 -5 0 -7
-4 -4 -10z"/>
<path d="M3965 610 c3 -5 8 -10 11 -10 2 0 4 5 4 10 0 6 -5 10 -11 10 -5 0 -7
-4 -4 -10z"/>
<path d="M4550 600 c0 -5 5 -10 10 -10 6 0 10 5 10 10 0 6 -4 10 -10 10 -5 0
-10 -4 -10 -10z"/>
<path d="M4365 590 c-3 -5 -1 -10 4 -10 6 0 11 5 11 10 0 6 -2 10 -4 10 -3 0
-8 -4 -11 -10z"/>
<path d="M4496 584 c-4 -10 -1 -14 6 -12 15 5 23 28 10 28 -5 0 -13 -7 -16
-16z"/>
<path d="M75 580 c-3 -5 -1 -10 4 -10 6 0 11 5 11 10 0 6 -2 10 -4 10 -3 0 -8
-4 -11 -10z"/>
<path d="M4400 579 c0 -5 5 -7 10 -4 6 3 10 8 10 11 0 2 -4 4 -10 4 -5 0 -10
-5 -10 -11z"/>
<path d="M6610 401 c0 -5 20 -19 44 -31 30 -14 43 -26 39 -36 -3 -9 2 -14 16
-14 14 0 21 6 21 20 0 11 7 23 15 26 31 12 14 21 -30 16 -25 -2 -50 0 -57 5
-20 15 -48 23 -48 14z"/>
<path d="M6656 93 c-13 -13 -37 -76 -31 -81 3 -3 25 4 49 15 46 23 56 21 56
-9 0 -10 5 -18 10 -18 13 0 13 41 0 74 -8 21 -16 26 -43 26 -19 0 -37 -3 -41
-7z"/>
<path d="M6513 27 c-45 -17 -51 -27 -16 -27 17 0 38 8 48 20 20 22 14 24 -32
7z"/>
</g>
</svg>
